<?xml version="1.0" standalone="no"?>
<!DOCTYPE svg PUBLIC "-//W3C//DTD SVG 1.1//EN" "http://www.w3.org/Graphics/SVG/1.1/DTD/svg11.dtd" >
<svg>
<metadata>
Created by FontForge 20090914 at Mon Jan 20 20:33:45 2014
 By www-data
Cyrillic characters Copyright (c) Paul Kravchenko 2001
</metadata>
<defs>
<font id="TickerTape" horiz-adv-x="1188" >
  <font-face 
    font-family="Ticker Tape"
    font-weight="400"
    font-stretch="normal"
    units-per-em="2048"
    panose-1="2 11 5 0 0 0 0 0 0 0"
    ascent="1638"
    descent="-410"
    x-height="942"
    cap-height="1597"
    bbox="-246 -614 2540 2112"
    underline-thickness="0"
    underline-position="0"
    unicode-range="U+0020-U+F002"
  />
<missing-glyph horiz-adv-x="1024" 
d="M128 0v1782h768v-1782h-768zM256 128h512v1526h-512v-1526z" />
    <glyph glyph-name=".notdef" horiz-adv-x="1024" 
d="M128 0v1782h768v-1782h-768zM256 128h512v1526h-512v-1526z" />
    <glyph glyph-name="space" unicode=" " horiz-adv-x="717" 
 />
    <glyph glyph-name="exclam" unicode="!" horiz-adv-x="328" 
d="M246 459h-164v1138h164v-1138zM246 82c0 -22.667 -8 -42 -24 -58s-35.333 -24 -58 -24s-42 8 -58 24s-24 35.333 -24 58s8 42 24 58s35.333 24 58 24s42 -8 58 -24s24 -35.333 24 -58z" />
    <glyph glyph-name="quotedbl" unicode="&#x22;" horiz-adv-x="655" 
d="M572 1413h-164v328h164v-328zM246 1413h-164v328h164v-328z" />
    <glyph glyph-name="numbersign" unicode="#" horiz-adv-x="1290" 
d="M1204 1137l-28 -164h-164l-62 -346h164l-29 -164h-163l-82 -463h-164l82 463h-346l-82 -463h-164l82 463h-166l29 164h165l62 346h-166l29 164h166l82 460h163l-82 -460h347l81 460h164l-82 -460h164zM848 973h-346l-62 -346h346z" />
    <glyph glyph-name="dollar" unicode="$" horiz-adv-x="1085" 
d="M1004 420c0 -114 -34.833 -212.832 -104.5 -296.499s-160.5 -135.834 -272.5 -156.501v-110h-164v108c-94 16.667 -176 59.667 -246 129l115 115c41.333 -40.667 85 -66 131 -76v590c-110 18 -201 70.333 -273 157s-108 186 -108 298c0 114.667 35.333 214.5 106 299.5
s162.334 136.5 275.001 154.5v109h164v-111c95.333 -16 177 -58.333 245 -127l-114 -114c-34.667 36 -78.334 61 -131.001 75v-592c112.667 -18.667 203.667 -70 273 -154s104 -183.333 104 -298zM463 891.001l-0.000976562 573c-144.667 -42.667 -217 -138 -217 -286
c0 -68 19.667 -128.667 59 -182c40.667 -56 93.334 -91 158.001 -105zM839.999 420.001c0 68.667 -19.168 128.999 -57.501 180.999s-90.166 87.333 -155.499 106v-572c64 18 115.5 53.333 154.5 106s58.5 112.334 58.5 179.001z" />
    <glyph glyph-name="percent" unicode="%" horiz-adv-x="1270" 
d="M655 1311c0 -82 -27 -150.333 -81 -205s-122.333 -82 -205 -82c-80.667 0 -148.667 27.5 -204 82.5s-83 123.167 -83 204.5c0 80.667 27.667 148.5 83 203.5s123.333 82.5 204 82.5c82 0 150.167 -27.167 204.5 -81.5s81.5 -122.5 81.5 -204.5zM1196 1597l-924 -1597
h-190l924 1597h190zM1196 287c0 -83.333 -27 -152 -81 -206s-122.667 -81 -206 -81c-80.667 0 -148.5 27.667 -203.5 83s-82.5 123.333 -82.5 204s27.333 148.5 82 203.5s122.667 82.5 204 82.5c82 0 150.333 -27 205 -81s82 -122.333 82 -205zM492 1311
c0 35.333 -11.667 64.6699 -35 88.0029s-52.666 35 -87.999 35c-34.667 0 -63.834 -11.833 -87.501 -35.5s-35.5 -52.834 -35.5 -87.501s11.833 -63.834 35.5 -87.501s52.834 -35.5 87.501 -35.5c35.333 0 64.666 11.667 87.999 35s35 52.666 35 87.999zM1032 287.004
c0 36 -11.502 65.5 -34.502 88.5s-52.5 34.5 -88.5 34.5c-33.333 0 -62.166 -12.167 -86.499 -36.5s-36.5 -53.166 -36.5 -86.499c0 -34.667 11.833 -63.834 35.5 -87.501s52.834 -35.5 87.501 -35.5c36 0 65.5 11.5 88.5 34.5s34.5 52.5 34.5 88.5z" />
    <glyph glyph-name="ampersand" unicode="&#x26;" horiz-adv-x="1761" 
d="M1679 121l-307 305l-315 -315c-101.333 -101.333 -231.666 -152 -390.999 -152c-161.333 0 -299 57 -413 171s-171 251.667 -171 413c0 112 30.5 215.667 91.5 311s142.5 167 244.5 215c-101.333 82 -152 186.333 -152 313c0 110.667 39 205 117 283s172.333 117 283 117
c111.333 0 205.666 -38.833 282.999 -116.5s116 -172.167 116 -283.5c0 -128.667 -50.667 -233 -152 -313c60 -27.333 125 -76.333 195 -147l264 -265l307 308v-232l-192 -192l192 -191v-229zM901 1382c0 66.667 -22.5 122.667 -67.5 168s-100.833 68 -167.5 68
s-122.667 -22.667 -168 -68s-68 -101.333 -68 -168s22.667 -122.5 68 -167.5s101.333 -67.5 168 -67.5c66 0 121.667 22.667 167 68s68 101 68 167zM1257 543l-272.001 272.001c-97.333 97.333 -203.666 146 -318.999 146c-116.667 0 -215.834 -40.5 -297.501 -121.5
s-122.5 -179.833 -122.5 -296.5s40.833 -215.834 122.5 -297.501s180.834 -122.5 297.501 -122.5s210.667 36 282 108z" />
    <glyph glyph-name="quotesingle" unicode="'" horiz-adv-x="328" 
d="M246 1413h-164v328h164v-328z" />
    <glyph glyph-name="parenleft" unicode="(" horiz-adv-x="655" 
d="M567 117l-116 -117c-246 251.333 -369 548.333 -369 891c0 348 123 645 369 891l116 -117c-214 -214 -321 -472 -321 -774s107 -560 321 -774z" />
    <glyph glyph-name="parenright" unicode=")" horiz-adv-x="655" 
d="M567 891c0 -348.667 -122.666 -645.666 -367.999 -890.999l-117 117c101.333 101.333 180.166 219.666 236.499 354.999s84.5 274.333 84.5 417c0 303.333 -107 562 -321 776l117 117c245.333 -249.333 368 -546.333 368 -891z" />
    <glyph glyph-name="asterisk" unicode="*" horiz-adv-x="1106" 
d="M1024 1044h-272l192 -192l-117 -117l-192 193v-273h-164v273l-192 -193l-117 117l192 192h-272v164h272l-192 193l117 117l192 -193v272h164v-272l192 193l117 -117l-192 -193h272v-164z" />
    <glyph glyph-name="plus" unicode="+" horiz-adv-x="1024" 
d="M944 473h-350v-348h-164v348h-348v164h348v350h164v-350h350v-164z" />
    <glyph glyph-name="comma" unicode="," horiz-adv-x="410" 
d="M328 123c0 -21.333 -4.33203 -40.332 -12.999 -56.999l-131 -256h-164l111 215c-32.667 23.333 -49 56 -49 98c0 35.333 11.667 64.666 35 87.999s52.666 35 87.999 35c36 0 65.5 -11.5 88.5 -34.5s34.5 -52.5 34.5 -88.5z" />
    <glyph glyph-name="hyphen" unicode="-" horiz-adv-x="1024" 
d="M944 473h-862v164h862v-164z" />
    <glyph glyph-name="hyphen" unicode="&#x2010;" horiz-adv-x="1024" 
d="M944 473h-862v164h862v-164z" />
    <glyph glyph-name="period" unicode="." horiz-adv-x="410" 
d="M328 123c0 -35.333 -11.666 -64.667 -34.999 -88s-52.666 -35 -87.999 -35c-34.667 -0 -63.834 11.833 -87.501 35.5s-35.5 52.834 -35.5 87.501c0 35.333 11.667 64.666 35 87.999s52.666 35 87.999 35c36 0 65.5 -11.5 88.5 -34.5s34.5 -52.5 34.5 -88.5z" />
    <glyph glyph-name="slash" unicode="/" horiz-adv-x="1270" 
d="M1278 1741l-1088 -1884h-190l1087 1884h191z" />
    <glyph glyph-name="zero" unicode="0" 
d="M1106 471c0 -142 -49.833 -262.833 -149.5 -362.5s-220.5 -149.5 -362.5 -149.5s-262.833 49.833 -362.5 149.5s-149.5 220.5 -149.5 362.5v651c0 142 49.833 262.833 149.5 362.5s220.5 149.5 362.5 149.5s262.833 -49.833 362.5 -149.5s149.5 -220.5 149.5 -362.5v-651
zM942 471l0.000976562 651.001c0 96.667 -33.833 178.834 -101.5 246.501s-149.834 101.5 -246.501 101.5s-178.834 -33.833 -246.501 -101.5s-101.5 -149.834 -101.5 -246.501v-651c0 -96.667 33.833 -178.834 101.5 -246.501s149.834 -101.5 246.501 -101.5
c96 0 178 34 246 102s102 150 102 246z" />
    <glyph glyph-name="one" unicode="1" horiz-adv-x="573" 
d="M489 0h-163v1282l-80 -158h-164l244 473h163v-1597z" />
    <glyph glyph-name="two" unicode="2" horiz-adv-x="1085" 
d="M1006 -2l-923.999 2.00098l549 979l53 94c16.667 34.667 25 69.667 25 105c0 84 -28.333 154.5 -85 211.5s-127.334 85.5 -212.001 85.5c-88 0 -159.667 -28.667 -215 -86l-115 114c88 90 198 135 330 135c127.333 0 235.833 -44.833 325.5 -134.5
s134.5 -198.167 134.5 -325.5c0 -50.667 -14.333 -105.334 -43 -164.001l-84 -150l-395 -702h656v-164z" />
    <glyph glyph-name="three" unicode="3" horiz-adv-x="676" 
d="M594 502c0 -141.333 -51.667 -257.335 -155 -348.002c-91.333 -80 -210.333 -131.333 -357 -154v154c96.667 0 178.834 33.833 246.501 101.5s101.5 149.834 101.5 246.501c0 123.333 -50.333 218.666 -151 285.999c100.667 72 151 168.333 151 289
c0 96.667 -33.833 178.834 -101.5 246.501s-149.834 101.5 -246.501 101.5v154c146.667 -20 266 -71 358 -153c102.667 -90.667 154 -207 154 -349c0 -103.333 -29.333 -199.666 -88 -288.999c58.667 -86.667 88 -182 88 -286z" />
    <glyph glyph-name="four" unicode="4" horiz-adv-x="1065" 
d="M985 446h-307v-446h-164v446h-432l596 1192v-1028h307v-164zM514 610v334l-166 -334h166z" />
    <glyph glyph-name="five" unicode="5" horiz-adv-x="922" 
d="M844 420c0 -126.667 -45.1641 -235.167 -135.497 -325.5s-198.833 -135.5 -325.5 -135.5c-128.667 0 -237.334 45 -326.001 135l115 115c55.333 -57.333 125.666 -86 210.999 -86c84 0 154.5 28.5 211.5 85.5s85.5 127.5 85.5 211.5c0 49.333 -11.333 96.333 -34 141
c-52.667 104 -140.334 156 -263.001 156h-301v880h682v-163h-518v-553h137c126.667 0 235.167 -45.167 325.5 -135.5s135.5 -198.833 135.5 -325.5z" />
    <glyph glyph-name="six" unicode="6" horiz-adv-x="1331" 
d="M1249 553c0 -160.667 -57 -298.167 -171 -412.5s-251.333 -171.5 -412 -171.5c-161.333 0 -299 57 -413 171s-171 251.667 -171 413s55.333 297.333 166 408l637 636h231l-465 -460c166.667 0 308 -55.833 424 -167.5s174 -250.5 174 -416.5zM1085 553
c0 64 -15.6689 128.668 -47.002 194.001c-72.667 150.667 -196.667 226 -372 226c-121.333 0 -221.666 -39.833 -300.999 -119.5s-119 -179.834 -119 -300.501c0 -116.667 40.833 -215.834 122.5 -297.501s180.834 -122.5 297.501 -122.5
c117.333 0 216.5 40.833 297.5 122.5s121.5 180.834 121.5 297.501z" />
    <glyph glyph-name="seven" unicode="7" horiz-adv-x="1126" 
d="M1069 1597l-823 -1597h-164l739 1436h-737v163z" />
    <glyph glyph-name="eight" unicode="8" horiz-adv-x="1024" 
d="M942 430c0 -119.333 -41.832 -220.833 -125.499 -304.5s-185.167 -125.5 -304.5 -125.5s-220.833 41.833 -304.5 125.5s-125.5 185.167 -125.5 304.5c0 84 22.333 161 67 231s105 122.667 181 158c-76 35.333 -136.333 88 -181 158s-67 147 -67 231
c0 119.333 41.833 220.833 125.5 304.5s185.167 125.5 304.5 125.5s220.833 -41.833 304.5 -125.5s125.5 -185.167 125.5 -304.5c0 -84.667 -22 -161.5 -66 -230.5s-104 -121.833 -180 -158.5c75.333 -36 135.166 -89 179.499 -159s66.5 -146.667 66.5 -230zM778.001 1208
c0 76.667 -25.333 140.333 -76 191s-114 76 -190 76c-74 0 -136.833 -26 -188.5 -78s-77.5 -115 -77.5 -189c0 -72.667 26.167 -135.167 78.5 -187.5s114.833 -78.5 187.5 -78.5c74 0 136.833 25.833 188.5 77.5s77.5 114.5 77.5 188.5zM778.001 429.999
c0 76.667 -25.333 140.167 -76 190.5s-114 75.5 -190 75.5c-74 0 -136.833 -25.833 -188.5 -77.5s-77.5 -114.5 -77.5 -188.5s25.833 -136.833 77.5 -188.5s114.5 -77.5 188.5 -77.5s136.833 25.833 188.5 77.5s77.5 114.5 77.5 188.5z" />
    <glyph glyph-name="nine" unicode="9" horiz-adv-x="1331" 
d="M1249 1044c0 -160.667 -55.333 -296.333 -166 -407l-637 -637h-231l465 461c-166.667 0 -308 55.667 -424 167s-174 250 -174 416c0 161.333 57 299 171 413s251.667 171 413 171c160.667 0 298 -57.167 412 -171.5s171 -251.833 171 -412.5zM1085 1044
c0 116.667 -40.666 215.833 -121.999 297.5s-180.333 122.5 -297 122.5s-215.834 -40.833 -297.501 -122.5s-122.5 -180.834 -122.5 -297.501c0 -63.333 16 -128 48 -194c72.667 -150 196.667 -225 372 -225c80 0 154.667 20.833 224 62.5s121.333 97.834 156 168.501
c26 53.333 39 116 39 188z" />
    <glyph glyph-name="colon" unicode=":" horiz-adv-x="410" 
d="M328 819c0 -35.333 -11.666 -64.667 -34.999 -88s-52.666 -35 -87.999 -35c-34.667 0 -63.834 11.833 -87.501 35.5s-35.5 52.834 -35.5 87.501c0 35.333 11.667 64.666 35 87.999s52.666 35 87.999 35c36 0 65.5 -11.5 88.5 -34.5s34.5 -52.5 34.5 -88.5z
M328.001 122.999c0 -35.333 -11.666 -64.667 -34.999 -88s-52.666 -35 -87.999 -35c-34.667 0 -63.834 11.833 -87.501 35.5s-35.5 52.834 -35.5 87.501c0 35.333 11.667 64.666 35 87.999s52.666 35 87.999 35c36 0 65.5 -11.5 88.5 -34.5s34.5 -52.5 34.5 -88.5z" />
    <glyph glyph-name="semicolon" unicode=";" horiz-adv-x="410" 
d="M328 817c0 -35.333 -11.666 -64.667 -34.999 -88s-52.666 -35 -87.999 -35c-34.667 0 -63.834 11.833 -87.501 35.5s-35.5 52.834 -35.5 87.501c0 35.333 11.667 64.666 35 87.999s52.666 35 87.999 35c36 0 65.5 -11.5 88.5 -34.5s34.5 -52.5 34.5 -88.5z
M328.001 122.999c0 -21.333 -4.33203 -40.332 -12.999 -56.999l-131 -256h-164l111 215c-32.667 23.333 -49 56 -49 98c0 35.333 11.667 64.666 35 87.999s52.666 35 87.999 35c36 0 65.5 -11.5 88.5 -34.5s34.5 -52.5 34.5 -88.5z" />
    <glyph glyph-name="less" unicode="&#x3c;" horiz-adv-x="983" 
d="M901 86l-819 428l819 424v-168l-502 -258l502 -258v-168z" />
    <glyph glyph-name="equal" unicode="=" horiz-adv-x="1024" 
d="M944 645h-862v164h862v-164zM944 344h-862v164h862v-164z" />
    <glyph glyph-name="greater" unicode="&#x3e;" horiz-adv-x="983" 
d="M901 514l-819 -428v168l502 258l-502 258v168z" />
    <glyph glyph-name="question" unicode="?" horiz-adv-x="963" 
d="M872 1178c0 -82 -20.499 -158.5 -61.499 -229.5s-97 -127.333 -168 -169s-147.833 -62.5 -230.5 -62.5c-40.667 0 -73.834 -12.167 -99.501 -36.5s-38.5 -55.166 -38.5 -92.499s13 -68.833 39 -94.5s57.667 -38.5 95 -38.5c40 0 72 13 96 39l114 -117
c-59.333 -57.333 -129.333 -86 -210 -86c-81.333 0 -151.166 29.167 -209.499 87.5s-87.5 128.166 -87.5 209.499c0 82.667 29.333 152.167 88 208.5s129.667 84.5 213 84.5c45.333 0 87 8.66699 125 26c52 24 93.667 60.667 125 110s47 103 47 161
c0 84 -28.333 154.5 -85 211.5s-127.334 85.5 -212.001 85.5c-88 0 -159.667 -28.667 -215 -86l-115 114c88 90 198 135 330 135c127.333 0 235.833 -44.833 325.5 -134.5s134.5 -198.167 134.5 -325.5zM524.001 123c0 -36 -11.501 -65.501 -34.501 -88.501
s-52.5 -34.5 -88.5 -34.5c-34.667 0 -63.667 11.833 -87 35.5s-35 52.834 -35 87.501s11.667 63.834 35 87.501s52.333 35.5 87 35.5c36.667 0 66.334 -11.333 89.001 -34s34 -52.334 34 -89.001z" />
    <glyph glyph-name="at" unicode="@" horiz-adv-x="1843" 
d="M1761 799c0 -231.333 -82 -429.166 -246 -593.499s-361.667 -246.5 -593 -246.5s-429.166 82.167 -593.499 246.5s-246.5 362.166 -246.5 593.499s82.167 429 246.5 593s362.166 246 593.499 246c232 0 429.833 -81.833 593.5 -245.5s245.5 -361.5 245.5 -593.5z
M1597 799c0 139.333 -33.332 260.333 -99.999 363c-62.667 96.667 -145.334 173 -248.001 229s-211.667 84 -327 84c-139.333 0 -260.333 -33.333 -363 -100c-96.667 -62.667 -173 -145.5 -229 -248.5s-84 -212.167 -84 -327.5c0 -139.333 33.333 -260.333 100 -363
c62.667 -96.667 145.5 -173 248.5 -229s212.167 -84 327.5 -84c196.667 0 359 67.667 487 203h-164v94c-98.667 -90 -214.667 -135 -348 -135c-142 0 -262.833 49.833 -362.5 149.5s-149.5 220.5 -149.5 362.5s49.833 262.833 149.5 362.5s220.5 149.5 362.5 149.5
c133.333 0 249.333 -46 348 -138v41h164v-792h74c76 114.667 114 241 114 379zM1245 797c0 96.667 -33.834 178.833 -101.501 246.5s-149.834 101.5 -246.501 101.5c-96 0 -178 -34 -246 -102s-102 -150 -102 -246c0 -96.667 33.833 -178.834 101.5 -246.501
s149.834 -101.5 246.501 -101.5s178.834 33.833 246.501 101.5s101.5 149.834 101.5 246.501z" />
    <glyph glyph-name="A" unicode="A" horiz-adv-x="1597" 
d="M1647 0h-172l-250 487h-863l-251 -487h-168l848 1638zM1141 651l-348 670l-344 -670h692z" />
    <glyph glyph-name="B" unicode="B" horiz-adv-x="840" 
d="M754 512c0 -95.333 -25.667 -182.001 -77 -260.001c-110.667 -168 -309 -252.667 -595 -254v1601c183.333 0 335.333 -38.333 456 -115c144 -91.333 216 -223.666 216 -396.999c0 -102.667 -29.333 -198.667 -88 -288c58.667 -87.333 88 -183 88 -287zM590 511.999
c0 120.667 -50.668 216.332 -152.001 286.999c101.333 69.333 152 165.333 152 288c0 96 -34 178.167 -102 246.5s-150 102.5 -246 102.5v-1272c96.667 0 178.834 33.833 246.501 101.5s101.5 149.834 101.5 246.501z" />
    <glyph glyph-name="C" unicode="C" horiz-adv-x="1597" 
d="M1505 193c-162.667 -158.667 -356.998 -237.999 -582.998 -237.999c-232.667 0 -430.834 82.5 -594.501 247.5s-245.5 363.833 -245.5 596.5c0 231.333 82.167 429 246.5 593s362.166 246 593.499 246c224 0 418.333 -79 583 -237l-116 -113
c-129.333 124.667 -285 187 -467 187c-129.333 0 -246 -30.667 -350 -92c-107.333 -62.667 -189.666 -150.667 -246.999 -264c-52.667 -104.667 -79 -211.334 -79 -320.001c0 -117.333 27.667 -227.5 83 -330.5s131.666 -186.167 228.999 -249.5
c103.333 -66.667 224.666 -100 363.999 -100c182.667 0 338.334 62 467.001 186z" />
    <glyph glyph-name="D" unicode="D" horiz-adv-x="963" 
d="M881 799c0 -220.667 -78 -409 -234 -565s-344.333 -234 -565 -234v1597c220 0 408.167 -78 564.5 -234s234.5 -344 234.5 -564zM717 799c0 144.667 -43.499 273.667 -130.499 387s-200.5 189 -340.5 227v-1229c139.333 38.667 252.666 114.667 339.999 228
s131 242.333 131 387z" />
    <glyph glyph-name="E" unicode="E" 
d="M1106 0h-1024v1597h1024v-163h-860v-594h737v-164h-737v-512h860v-164z" />
    <glyph glyph-name="F" unicode="F" 
d="M1106 1434h-860v-594h737v-164h-737v-676h-164v1597h1024v-163z" />
    <glyph glyph-name="G" unicode="G" horiz-adv-x="1843" 
d="M1761 799c0 -231.333 -81.998 -429.166 -245.998 -593.499s-361.667 -246.5 -593 -246.5s-429.166 82.167 -593.499 246.5s-246.5 362.166 -246.5 593.499s82.167 429 246.5 593s362.166 246 593.499 246c224 0 417.667 -78.333 581 -235l-114 -115
c-129.333 124.667 -285 187 -467 187c-115.333 0 -224.5 -28 -327.5 -84s-185.833 -132.333 -248.5 -229c-66.667 -102.667 -100 -223.667 -100 -363c0 -115.333 28 -224.5 84 -327.5s132.333 -185.833 229 -248.5c102.667 -66.667 223.667 -100 363 -100
c155.333 0 295.666 48.667 420.999 146s204.666 221.333 237.999 372h-422v158h602z" />
    <glyph glyph-name="H" unicode="H" 
d="M1106 0h-164v676h-696v-676h-164v1597h164v-757h696v757h164v-1597z" />
    <glyph glyph-name="I" unicode="I" horiz-adv-x="328" 
d="M246 0h-164v1597h164v-1597z" />
    <glyph glyph-name="J" unicode="J" horiz-adv-x="430" 
d="M348 -102c0 -142 -49.834 -262.833 -149.501 -362.5s-220.5 -149.5 -362.5 -149.5v163c96.667 0 178.834 34 246.501 102s101.5 150.333 101.5 247v1701h164v-1701z" />
    <glyph glyph-name="K" unicode="K" horiz-adv-x="819" 
d="M756 0h-164l-346 666v-666h-164v1597h164v-665l346 665h164l-416 -798z" />
    <glyph glyph-name="L" unicode="L" horiz-adv-x="1065" 
d="M983 2l-901 -2v1599h164v-1433h737v-164z" />
    <glyph glyph-name="M" unicode="M" horiz-adv-x="1536" 
d="M1460 0h-164v979l-532 -1020l-518 1006v-965h-164v1638l684 -1362l694 1362v-1638z" />
    <glyph glyph-name="N" unicode="N" horiz-adv-x="840" 
d="M766 -41l-520 1006v-965h-164v1638l520 -1036v995h164v-1638z" />
    <glyph glyph-name="O" unicode="O" horiz-adv-x="1843" 
d="M1761 799c0 -231.333 -82 -429.166 -246 -593.499s-361.667 -246.5 -593 -246.5s-429.166 82.167 -593.499 246.5s-246.5 362.166 -246.5 593.499s82.167 429 246.5 593s362.166 246 593.499 246c232 0 429.833 -81.833 593.5 -245.5s245.5 -361.5 245.5 -593.5z
M1597 799c0 129.333 -31.002 246.666 -93.002 351.999s-150 187 -264 245c-104 52.667 -210 79 -318 79c-129.333 0 -246.333 -30.667 -351 -92c-106.667 -63.333 -188.667 -152 -246 -266c-52.667 -104.667 -79 -210.667 -79 -318c0 -139.333 33.333 -260.333 100 -363
c62.667 -96.667 145.334 -173 248.001 -229s212 -84 328 -84c138.667 0 259.334 33.333 362.001 100c96.667 62.667 173 145.334 229 248.001s84 212 84 328z" />
    <glyph glyph-name="P" unicode="P" horiz-adv-x="840" 
d="M754 1087c0 -141.333 -50 -262 -150 -362s-220.667 -150 -362 -150l4 -577h-164v1601h164c140.667 0 260.5 -50.167 359.5 -150.5s148.5 -220.833 148.5 -361.5zM590 1087c0 96 -34 178.167 -102 246.5s-150 102.5 -246 102.5v-697c96 0 178 34 246 102s102 150 102 246z
" />
    <glyph glyph-name="Q" unicode="Q" horiz-adv-x="1843" 
d="M1898 0l-233 0.000976562l-178 178c-162.667 -146 -351 -219 -565 -219c-231.333 0 -429.166 82.167 -593.499 246.5s-246.5 362.166 -246.5 593.499s82.167 429 246.5 593s362.166 246 593.499 246c232 0 429.833 -81.833 593.5 -245.5s245.5 -361.5 245.5 -593.5
c0 -182.667 -54.667 -348.667 -164 -498zM1597 799.001c0 129.333 -31 246.667 -93 352s-150 187 -264 245c-104 52.667 -210 79 -318 79c-129.333 0 -246.333 -30.667 -351 -92c-106.667 -63.333 -188.667 -152 -246 -266c-52.667 -104.667 -79 -210.667 -79 -318
c0 -139.333 33.333 -260.333 100 -363c62.667 -96.667 145.5 -173 248.5 -229s212.167 -84 327.5 -84c178 0 328 56 450 168l-325 325h235l199 -198c77.333 114 116 241 116 381z" />
    <glyph glyph-name="R" unicode="R" horiz-adv-x="840" 
d="M754 1087c0 -112 -33.333 -212.832 -100 -302.499s-153.667 -151.834 -261 -186.501l307 -598h-163l-291 575v-575h-164v1599h164c140 0 259.667 -50.167 359 -150.5s149 -220.833 149 -361.5zM590 1087c0 96 -34 178.167 -102 246.5s-150 102.5 -246 102.5v-697
c96 0 178 34 246 102s102 150 102 246z" />
    <glyph glyph-name="S" unicode="S" horiz-adv-x="1085" 
d="M1004 420c0 -126.667 -45.165 -235.17 -135.498 -325.503s-198.833 -135.5 -325.5 -135.5c-128.667 0 -237.334 45 -326.001 135l115 115c55.333 -57.333 125.666 -86 210.999 -86c84 0 154.5 28.5 211.5 85.5s85.5 127.5 85.5 211.5
c0 84.667 -28.5 155.334 -85.5 212.001s-127.5 85 -211.5 85c-62 0 -121 12 -177 36c-85.333 36.667 -154 93.5 -206 170.5s-78 161.833 -78 254.5c0 126.667 45.167 235 135.5 325s198.833 135 325.5 135c133.333 0 243 -45 329 -135l-114 -114
c-55.333 57.333 -127 86 -215 86c-83.333 0 -153.666 -28.667 -210.999 -86s-86 -127.666 -86 -210.999c0 -74 25.667 -141 77 -201c54.667 -64 128 -96 220 -96c82 0 158.667 -20.667 230 -62s127.666 -97.666 168.999 -168.999s62 -148 62 -230z" />
    <glyph glyph-name="T" unicode="T" horiz-adv-x="1065" 
d="M983 1434h-369v-1436h-163v1436h-369v165l901 -2v-163z" />
    <glyph glyph-name="U" unicode="U" 
d="M1098 471c0 -142 -49.833 -262.832 -149.5 -362.499s-220.5 -149.5 -362.5 -149.5c-140 0 -259 50.333 -357 151s-147 221 -147 361v1126h164v-1126c0 -94.667 33 -176.334 99 -245.001s146.333 -103 241 -103c96 0 178 34 246 102s102 150 102 246v1126h164v-1126z" />
    <glyph glyph-name="V" unicode="V" horiz-adv-x="1597" 
d="M1647 1597l-856 -1638l-848 1638h168l682 -1321l682 1321h172z" />
    <glyph glyph-name="W" unicode="W" horiz-adv-x="2458" 
d="M2499 1597l-857 -1638l-423 819l-428 -819l-848 1638h168l682 -1321l426 826l426 -826l682 1321h172z" />
    <glyph glyph-name="X" unicode="X" 
d="M1098 0h-164l-346 666l-342 -666h-164l410 799l-410 798h164l342 -665l346 665h164l-416 -798z" />
    <glyph glyph-name="Y" unicode="Y" 
d="M1098 1597l-430 -825v-772h-164v774l-422 823h164l342 -665l346 665h164z" />
    <glyph glyph-name="Z" unicode="Z" horiz-adv-x="1167" 
d="M1079 0h-997l741 1434h-739v163h995l-749 -1433h749v-164z" />
    <glyph glyph-name="bracketleft" unicode="[" horiz-adv-x="696" 
d="M616 -164h-534v2069h534v-164h-370v-1741h370v-164z" />
    <glyph glyph-name="backslash" unicode="\" horiz-adv-x="1270" 
d="M1278 -143h-191l-1087 1884h190z" />
    <glyph glyph-name="bracketright" unicode="]" horiz-adv-x="696" 
d="M616 -164h-534v164h371v1741h-371v164h534v-2069z" />
    <glyph glyph-name="asciicircum" unicode="^" horiz-adv-x="676" 
d="M592 1409h-164l-86 166l-86 -166h-164l170 330h158z" />
    <glyph glyph-name="underscore" unicode="_" horiz-adv-x="1024" 
d="M1024 -571h-1024v163h1024v-163z" />
    <glyph glyph-name="grave" unicode="`" horiz-adv-x="492" 
d="M422 1413h-172l-168 328h168z" />
    <glyph glyph-name="a" unicode="a" 
d="M1106 0h-164v94c-98.667 -90 -214.667 -135 -348 -135c-142 0 -262.833 49.833 -362.5 149.5s-149.5 220.5 -149.5 362.5s49.833 262.833 149.5 362.5s220.5 149.5 362.5 149.5c133.333 0 249.333 -45.667 348 -137v96h164v-942zM942 471
c0 96.667 -33.832 178.835 -101.499 246.502s-149.834 101.5 -246.501 101.5s-178.834 -33.833 -246.501 -101.5s-101.5 -149.834 -101.5 -246.501s33.833 -178.834 101.5 -246.501s149.834 -101.5 246.501 -101.5c96 0 178 34 246 102s102 150 102 246z" />
    <glyph glyph-name="b" unicode="b" 
d="M1106 471c0 -142 -49.833 -262.833 -149.5 -362.5s-220.5 -149.5 -362.5 -149.5c-133.333 0 -249.333 45 -348 135v-94h-164v1741h164v-895c98 91.333 214 137 348 137c142 0 262.833 -49.833 362.5 -149.5s149.5 -220.5 149.5 -362.5zM942 471
c0 96.667 -33.832 178.835 -101.499 246.502s-149.834 101.5 -246.501 101.5s-178.834 -33.833 -246.501 -101.5s-101.5 -149.834 -101.5 -246.501s33.833 -178.834 101.5 -246.501s149.834 -101.5 246.501 -101.5c96 0 178 34 246 102s102 150 102 246z" />
    <glyph glyph-name="c" unicode="c" horiz-adv-x="1028" 
d="M942 94c-98.667 -90 -214.667 -134.998 -348 -134.998c-142 0 -262.833 49.833 -362.5 149.5s-149.5 220.5 -149.5 362.5s49.833 262.833 149.5 362.5s220.5 149.5 362.5 149.5c133.333 0 249.333 -45.667 348 -137l-117 -115c-65.333 58.667 -142.333 88 -231 88
c-96.667 0 -178.834 -33.833 -246.501 -101.5s-101.5 -149.834 -101.5 -246.501s33.833 -178.834 101.5 -246.501s149.834 -101.5 246.501 -101.5c88.667 0 165.667 29.333 231 88z" />
    <glyph glyph-name="d" unicode="d" 
d="M1106 0h-164v94c-98.667 -90 -214.667 -135 -348 -135c-142 0 -262.833 49.833 -362.5 149.5s-149.5 220.5 -149.5 362.5s49.833 262.833 149.5 362.5s220.5 149.5 362.5 149.5c133.333 0 249.333 -45.667 348 -137v895h164v-1741zM942 471
c0 96.667 -33.832 178.835 -101.499 246.502s-149.834 101.5 -246.501 101.5s-178.834 -33.833 -246.501 -101.5s-101.5 -149.834 -101.5 -246.501s33.833 -178.834 101.5 -246.501s149.834 -101.5 246.501 -101.5c96 0 178 34 246 102s102 150 102 246z" />
    <glyph glyph-name="e" unicode="e" 
d="M1106 471c0 -27.333 -1.99805 -54.667 -5.99805 -82h-844c19.333 -78.667 60.166 -142.667 122.499 -192s134.166 -74 215.499 -74c88.667 0 165.667 29.333 231 88l117 -117c-98.667 -90 -214.667 -135 -348 -135c-142 0 -262.833 49.833 -362.5 149.5
s-149.5 220.5 -149.5 362.5s49.833 262.833 149.5 362.5s220.5 149.5 362.5 149.5s262.833 -49.833 362.5 -149.5s149.5 -220.5 149.5 -362.5zM932.002 552.999c-18 78 -58.6689 141.833 -122.002 191.5s-135.333 74.5 -216 74.5c-81.333 0 -153.166 -24.667 -215.499 -74
s-103.166 -113.333 -122.499 -192h676z" />
    <glyph glyph-name="f" unicode="f" horiz-adv-x="758" 
d="M758 1618c-96.667 0 -178.833 -33.832 -246.5 -101.499s-101.5 -149.834 -101.5 -246.501v-328h163v-164h-163v-778h-164v778h-164v164h164v328c0 142 49.833 262.833 149.5 362.5s220.5 149.5 362.5 149.5v-164z" />
    <glyph glyph-name="g" unicode="g" 
d="M1106 -102c0 -142 -49.833 -262.833 -149.5 -362.5s-220.5 -149.5 -362.5 -149.5c-133.333 0 -249.333 45 -348 135l116 117c66 -59.333 143.333 -89 232 -89c96 0 178 34.167 246 102.5s102 150.5 102 246.5v196c-98.667 -90 -214.667 -135 -348 -135
c-142 0 -262.833 49.833 -362.5 149.5s-149.5 220.5 -149.5 362.5s49.833 262.833 149.5 362.5s220.5 149.5 362.5 149.5c133.333 0 249.333 -45.667 348 -137v96h164v-1044zM942 471c0 96.667 -33.832 178.835 -101.499 246.502s-149.834 101.5 -246.501 101.5
s-178.834 -33.833 -246.501 -101.5s-101.5 -149.834 -101.5 -246.501s33.833 -178.834 101.5 -246.501s149.834 -101.5 246.501 -101.5c96 0 178 34 246 102s102 150 102 246z" />
    <glyph glyph-name="h" unicode="h" 
d="M1106 0h-163.998v471c0 96.667 -33.833 178.834 -101.5 246.501s-149.834 101.5 -246.501 101.5s-178.834 -33.833 -246.501 -101.5s-101.5 -149.834 -101.5 -246.501v-471h-164v1741h164v-895c98 91.333 214 137 348 137c142 0 262.833 -49.833 362.5 -149.5
s149.5 -220.5 149.5 -362.5v-471z" />
    <glyph glyph-name="i" unicode="i" horiz-adv-x="328" 
d="M246 1319c0 -22.667 -8 -42 -24 -58s-35.333 -24 -58 -24s-42 8 -58 24s-24 35.333 -24 58s8 42 24 58s35.333 24 58 24s42 -8 58 -24s24 -35.333 24 -58zM246 0h-164v942h164v-942z" />
    <glyph glyph-name="j" unicode="j" horiz-adv-x="430" 
d="M348 1516c0 -22.667 -8 -42 -24 -58s-35.333 -24 -58 -24s-42 8 -58 24s-24 35.333 -24 58c0 23.333 7.83301 42.666 23.5 57.999s35.167 23 58.5 23s42.833 -7.66699 58.5 -23s23.5 -34.666 23.5 -57.999zM348 -102c0 -142 -49.834 -262.833 -149.501 -362.5
s-220.5 -149.5 -362.5 -149.5v163c96.667 0 178.834 34 246.501 102s101.5 150.333 101.5 247v1044h164v-1044z" />
    <glyph glyph-name="k" unicode="k" horiz-adv-x="860" 
d="M887 0h-234l-407 408v-408h-164v1741h164v-1096l297 297h233l-416 -416z" />
    <glyph glyph-name="l" unicode="l" horiz-adv-x="328" 
d="M246 0h-164v1741h164v-1741z" />
    <glyph glyph-name="m" unicode="m" horiz-adv-x="2068" 
d="M1989 0l-163.997 -0.000976562v471c0 96.667 -33.833 178.834 -101.5 246.501s-149.834 101.5 -246.501 101.5c-64.667 0 -127.667 -17 -189 -51c-121.333 -67.333 -182 -168.333 -182 -303v-465h-164v471c0 96.667 -33.833 178.834 -101.5 246.501
s-149.834 101.5 -246.501 101.5s-178.834 -33.833 -246.501 -101.5s-101.5 -149.834 -101.5 -246.501v-471h-164v942h164v-96c98 91.333 214 137 348 137c188.667 0 332.667 -79.333 432 -238c106 158.667 258.333 238 457 238c140 0 259.333 -50.333 358 -151
s148 -221 148 -361v-471z" />
    <glyph glyph-name="n" unicode="n" 
d="M1106 0h-163.998v471c0 96.667 -33.833 178.834 -101.5 246.501s-149.834 101.5 -246.501 101.5s-178.834 -33.833 -246.501 -101.5s-101.5 -149.834 -101.5 -246.501v-471h-164v942h164v-96c98 91.333 214 137 348 137c142 0 262.833 -49.833 362.5 -149.5
s149.5 -220.5 149.5 -362.5v-471z" />
    <glyph glyph-name="o" unicode="o" 
d="M1106 471c0 -142 -49.833 -262.833 -149.5 -362.5s-220.5 -149.5 -362.5 -149.5s-262.833 49.833 -362.5 149.5s-149.5 220.5 -149.5 362.5s49.833 262.833 149.5 362.5s220.5 149.5 362.5 149.5s262.833 -49.833 362.5 -149.5s149.5 -220.5 149.5 -362.5zM942 471
c0 96.667 -33.832 178.835 -101.499 246.502s-149.834 101.5 -246.501 101.5s-178.834 -33.833 -246.501 -101.5s-101.5 -149.834 -101.5 -246.501s33.833 -178.834 101.5 -246.501s149.834 -101.5 246.501 -101.5c96 0 178 34 246 102s102 150 102 246z" />
    <glyph glyph-name="p" unicode="p" 
d="M1106 471c0 -142 -49.833 -262.833 -149.5 -362.5s-220.5 -149.5 -362.5 -149.5c-134 0 -250 45.667 -348 137v-669h-164v1515h164v-94c98.667 90 214.667 135 348 135c142 0 262.833 -49.833 362.5 -149.5s149.5 -220.5 149.5 -362.5zM942 471
c0 96.667 -33.832 178.835 -101.499 246.502s-149.834 101.5 -246.501 101.5s-178.834 -33.833 -246.501 -101.5s-101.5 -149.834 -101.5 -246.501s33.833 -178.834 101.5 -246.501s149.834 -101.5 246.501 -101.5c96 0 178 34 246 102s102 150 102 246z" />
    <glyph glyph-name="q" unicode="q" 
d="M1106 -573h-164v669c-98.667 -91.333 -214.667 -137 -348 -137c-142 0 -262.833 49.833 -362.5 149.5s-149.5 220.5 -149.5 362.5s49.833 262.833 149.5 362.5s220.5 149.5 362.5 149.5c133.333 0 249.333 -45 348 -135v94h164v-1515zM942 471
c0 96.667 -33.832 178.835 -101.499 246.502s-149.834 101.5 -246.501 101.5s-178.834 -33.833 -246.501 -101.5s-101.5 -149.834 -101.5 -246.501s33.833 -178.834 101.5 -246.501s149.834 -101.5 246.501 -101.5c96 0 178 34 246 102s102 150 102 246z" />
    <glyph glyph-name="r" unicode="r" horiz-adv-x="678" 
d="M594 819c-96.667 0 -178.833 -33.832 -246.5 -101.499s-101.5 -149.834 -101.5 -246.501v-471h-164v942h164v-96c98 91.333 214 137 348 137v-164z" />
    <glyph glyph-name="s" unicode="s" horiz-adv-x="758" 
d="M676 256c0 -81.333 -29.1689 -151.166 -87.502 -209.499s-128.166 -87.5 -209.499 -87.5c-80 0 -149.667 28.667 -209 86l115 117c22.667 -26 54 -39 94 -39c37.333 0 68.833 12.833 94.5 38.5s38.5 57.167 38.5 94.5c0 38 -12.5 69 -37.5 93s-56.833 36 -95.5 36
c-81.333 0 -151.166 29.167 -209.499 87.5s-87.5 128.166 -87.5 209.499c0 78 30 147 90 207s129 90 207 90c80 0 151 -30 213 -90l-115 -117c-25.333 28.667 -58 43 -98 43c-37.333 0 -68.833 -12.833 -94.5 -38.5s-38.5 -57.167 -38.5 -94.5s12.833 -68.833 38.5 -94.5
s57.167 -38.5 94.5 -38.5c53.333 0 103 -13 149 -39c98.667 -56 148 -140.667 148 -254z" />
    <glyph glyph-name="t" unicode="t" horiz-adv-x="655" 
d="M573 942h-163v-942h-164v942h-164v164h164v489h164v-489h163v-164z" />
    <glyph glyph-name="u" unicode="u" 
d="M1098 471c0 -142 -49.833 -262.832 -149.5 -362.499s-220.5 -149.5 -362.5 -149.5c-140 0 -259 50.333 -357 151s-147 221 -147 361v471h164v-471c0 -94.667 33 -176.334 99 -245.001s146.333 -103 241 -103c96 0 178 34 246 102s102 150 102 246v471h164v-471z" />
    <glyph glyph-name="v" unicode="v" horiz-adv-x="1167" 
d="M1098 942l-512 -983l-504 983h164l342 -666l346 666h164z" />
    <glyph glyph-name="w" unicode="w" horiz-adv-x="2007" 
d="M1927 942l-512 -983l-401 821l-428 -821l-504 983h164l342 -666l346 666h164l319 -666l346 666h164z" />
    <glyph glyph-name="x" unicode="x" horiz-adv-x="1229" 
d="M1253 0h-233l-408 408l-407 -408h-234l527 526l-416 416h233l297 -297l297 297h234l-416 -416z" />
    <glyph glyph-name="y" unicode="y" 
d="M1098 942l-791 -1515h-164l361 690l-422 825h164l342 -666l346 666h164z" />
    <glyph glyph-name="z" unicode="z" horiz-adv-x="901" 
d="M817 0h-733l471 778h-473v164h735l-471 -778h471v-164z" />
    <glyph glyph-name="braceleft" unicode="{" horiz-adv-x="778" 
d="M686 -289c-81.333 0 -149.499 27.667 -204.499 83s-82.5 124 -82.5 206v725l-317 166l317 164v686c0 80.667 27.5 149 82.5 205s123.167 84 204.5 84v-164c-34 0 -63 -12.333 -87 -37s-36 -54 -36 -88v-768l-164 -84l164 -84v-805c0 -35.333 11.667 -65 35 -89
s52.666 -36 87.999 -36v-164z" />
    <glyph glyph-name="bar" unicode="|" horiz-adv-x="328" 
d="M246 -164h-164v2069h164v-2069z" />
    <glyph glyph-name="braceright" unicode="}" horiz-adv-x="778" 
d="M686 891l-316.998 -166v-725c0 -81.333 -27.5 -149.833 -82.5 -205.5s-123.167 -83.5 -204.5 -83.5v164c35.333 0 64.666 12 87.999 36s35 53.667 35 89v805l164 84l-164 84v768c0 34.667 -11.833 64.167 -35.5 88.5s-52.834 36.5 -87.501 36.5v164
c81.333 0 149.5 -28 204.5 -84s82.5 -124.333 82.5 -205v-686z" />
    <glyph glyph-name="asciitilde" unicode="~" horiz-adv-x="1067" 
d="M979 1782c0 -83.333 -28.667 -153.666 -86 -210.999s-127.666 -86 -210.999 -86c-66.667 0 -126.667 21.167 -180 63.5s-94.333 63.5 -123 63.5c-37.333 0 -68.833 -12.833 -94.5 -38.5s-38.5 -57.167 -38.5 -94.5h-164c0 83.333 28.667 153.666 86 210.999
s127.666 86 210.999 86c71.333 0 132.5 -21.167 183.5 -63.5s90.833 -63.5 119.5 -63.5c37.333 0 68.833 12.833 94.5 38.5s38.5 57.167 38.5 94.5h164z" />
    <glyph glyph-name="nonbreakingspace" unicode="&#xa0;" horiz-adv-x="717" 
 />
    <glyph glyph-name="exclamdown" unicode="&#xa1;" horiz-adv-x="328" 
d="M246 1516c0 -22.667 -8 -42 -24 -58s-35.333 -24 -58 -24s-42 8 -58 24s-24 35.333 -24 58c0 23.333 7.83301 42.666 23.5 57.999s35.167 23 58.5 23s42.833 -7.66699 58.5 -23s23.5 -34.666 23.5 -57.999zM246 0h-164v1139h164v-1139z" />
    <glyph glyph-name="currency" unicode="&#xa4;" horiz-adv-x="901" 
d="M813 801l-110.998 -110.998c24.667 -38.667 37 -84.334 37 -137.001c0 -40.667 -12.333 -85.667 -37 -135l109 -111l-115 -117l-108 109c-44.667 -23.333 -90.334 -35 -137.001 -35c-41.333 0 -87.333 11.667 -138 35l-108 -109l-117 117l107 109
c-22 33.333 -33 77.666 -33 132.999c0 54 12.333 100.333 37 139l-113 113l117 117l110 -111c39.333 24.667 84.666 37 135.999 37c53.333 0 99 -13 137 -39l112 113zM573.002 555.002c0 33.333 -11.999 62.166 -35.999 86.499s-52.667 36.5 -86 36.5
c-34.667 0 -64.167 -12.167 -88.5 -36.5s-36.5 -53.833 -36.5 -88.5c0 -33.333 12.167 -62.166 36.5 -86.499s53.166 -36.5 86.499 -36.5c34.667 0 64 12.167 88 36.5s36 53.833 36 88.5z" />
    <glyph glyph-name="brokenbar" unicode="&#xa6;" horiz-adv-x="328" 
d="M246 1139h-164v766h164v-766zM246 -164h-164v766h164v-766z" />
    <glyph glyph-name="section" unicode="&#xa7;" horiz-adv-x="758" 
d="M672 592c0 -56 -16.332 -104.666 -48.999 -145.999c-5.33301 -6 -13 -15.333 -23 -28c31.333 -52.667 47 -113.334 47 -182.001c0 -74.667 -29.833 -139.167 -89.5 -193.5s-126.834 -81.5 -201.501 -81.5h-26c-76.667 0 -144.334 33.333 -203.001 100l125 109
c24.667 -31.333 59.334 -47 104.001 -47c36.667 0 67 13 91 39s36 57.333 36 94c0 22 -4 41 -12 57v9c-28 37.333 -65 58.333 -111 63c-64 6 -119 28.667 -165 68c-74 63.333 -111 137 -111 221c0 83.333 24.667 149.333 74 198c-32.667 45.333 -49 107.666 -49 186.999
c0 78 34 144 102 198c63.333 50.667 135 76 215 76c74.667 0 143.667 -34.667 207 -104l-123 -111c-27.333 35.333 -63.666 53 -108.999 53c-32 0 -61.5 -12.833 -88.5 -38.5s-40.5 -54.167 -40.5 -85.5v-17c0 -18 7.66699 -39.667 23 -65
c17.333 -29.333 51.333 -50.333 102 -63c43.333 -10.667 72.666 -18.667 87.999 -24c35.333 -11.333 62 -24.666 80 -39.999c71.333 -59.333 107 -141.333 107 -246zM510.001 606.001c0 84 -40.333 129 -121 135c-39.333 3.33301 -75.333 13 -108 29
c-22 -24 -33 -54 -33 -90c0 -53.333 23.667 -92 71 -116c13.333 -6.66699 37.333 -12.667 72 -18s62.667 -13.333 84 -24c23.333 23.333 35 51.333 35 84z" />
    <glyph glyph-name="dieresis" unicode="&#xa8;" horiz-adv-x="963" 
d="M877 1614c0 -35.333 -11.666 -64.667 -34.999 -88s-52.666 -35 -87.999 -35c-34.667 0 -63.834 11.833 -87.501 35.5s-35.5 52.834 -35.5 87.501c0 35.333 11.667 64.666 35 87.999s52.666 35 87.999 35c36 0 65.5 -11.5 88.5 -34.5s34.5 -52.5 34.5 -88.5zM328.001 1614
c0 -35.333 -11.666 -64.667 -34.999 -88s-52.666 -35 -87.999 -35c-34.667 0 -63.834 11.833 -87.501 35.5s-35.5 52.834 -35.5 87.501c0 35.333 11.667 64.666 35 87.999s52.666 35 87.999 35c36 0 65.5 -11.5 88.5 -34.5s34.5 -52.5 34.5 -88.5z" />
    <glyph glyph-name="copyright" unicode="&#xa9;" 
d="M1106 1128c0 -194 -83.333 -340.667 -250 -440c-80 -48 -167.333 -72 -262 -72c-142.667 0 -263.667 49.667 -363 149s-149 220.333 -149 363c0 144.667 49.167 266.167 147.5 364.5s219.833 147.5 364.5 147.5c148.667 0 271.167 -48.167 367.5 -144.5
s144.5 -218.833 144.5 -367.5zM1024 1128c0 124 -40.833 226.833 -122.5 308.5s-184.167 122.5 -307.5 122.5c-122.667 0 -225 -41.167 -307 -123.5s-123 -184.833 -123 -307.5c0 -118.667 42 -220 126 -304s185.333 -126 304 -126c122 0 224.167 41.167 306.5 123.5
s123.5 184.5 123.5 306.5zM768 938c-49.333 -45.333 -106.668 -68.001 -172.001 -68.001c-70.667 0 -131 25.333 -181 76s-75 111.334 -75 182.001c0 72.667 24.333 133.5 73 182.5s109.667 73.5 183 73.5c68 0 125.333 -23 172 -69l-57 -58c-30 30.667 -68.333 46 -115 46
c-49.333 0 -90.666 -16.833 -123.999 -50.5s-50 -75.167 -50 -124.5c0 -50 16.5 -91.5 49.5 -124.5s74.5 -49.5 124.5 -49.5c44 0 82.333 14.333 115 43z" />
    <glyph glyph-name="ordfeminine" unicode="&#xaa;" horiz-adv-x="1024" 
d="M932 805l-137.001 0.000976562v80c-83.333 -76.667 -181.666 -115 -294.999 -115c-118 0 -219.167 42.5 -303.5 127.5s-126.5 186.5 -126.5 304.5c0 119.333 41.833 221.166 125.5 305.499s185.167 126.5 304.5 126.5c112 0 210.333 -38.667 295 -116v81h137v-794z
M943.999 473.001h-862v164h862v-164zM794.999 1202c0 81.333 -28.667 150.5 -86 207.5s-127 85.5 -209 85.5c-81.333 0 -150.5 -28.5 -207.5 -85.5s-85.5 -126.167 -85.5 -207.5s28.5 -150.5 85.5 -207.5s126.167 -85.5 207.5 -85.5c82 0 151.667 28.333 209 85
s86 126 86 208z" />
    <glyph glyph-name="guillemotleft" unicode="&#xab;" horiz-adv-x="1536" 
d="M1460 0l-819 428l819 424v-168l-502 -258l502 -258v-168zM901 0l-819 428l819 424v-168l-502 -258l502 -258v-168z" />
    <glyph glyph-name="logicalnot" unicode="&#xac;" 
d="M1106 147h-164v326h-860v164h1024v-490z" />
    <glyph glyph-name="sfthyphen" unicode="&#xad;" horiz-adv-x="1024" 
d="M944 473h-862v164h862v-164z" />
    <glyph glyph-name="sfthyphen" unicode="&#x2212;" horiz-adv-x="1024" 
d="M944 473h-862v164h862v-164z" />
    <glyph glyph-name="registered" unicode="&#xae;" 
d="M1108 1128c0 -142 -50.167 -262.833 -150.5 -362.5s-221.5 -149.5 -363.5 -149.5c-141.333 0 -262 50 -362 150s-150 220.667 -150 362c0 142.667 49.667 263.667 149 363s220.333 149 363 149c144 0 265.667 -49.333 365 -148s149 -220 149 -364zM1024 1128
c0 120 -41.667 221.833 -125 305.5s-185 125.5 -305 125.5c-120.667 0 -222.167 -41.5 -304.5 -124.5s-123.5 -185.167 -123.5 -306.5c0 -119.333 41.5 -220.5 124.5 -303.5s184.167 -124.5 303.5 -124.5c120 0 221.667 41.333 305 124s125 184 125 304zM754 1270
c-49.333 0 -90.333 -16.668 -123 -50.001s-49 -74.666 -49 -123.999v-236h-84v471h84v-49c46 46.667 103.333 70 172 70v-82z" />
    <glyph glyph-name="degree" unicode="&#xb0;" horiz-adv-x="573" 
d="M492 1434c0 -56.667 -20 -105.001 -60 -145.001s-88.333 -60 -145 -60c-58.667 0 -107.5 19.5 -146.5 58.5s-58.5 87.833 -58.5 146.5c0 56.667 20 104.834 60 144.501s88.333 59.5 145 59.5c58 0 106.667 -19.5 146 -58.5s59 -87.5 59 -145.5zM410 1434
c0 35.333 -11.666 64.499 -34.999 87.499s-52.666 34.5 -87.999 34.5c-34.667 0 -63.834 -11.667 -87.501 -35s-35.5 -52.333 -35.5 -87c0 -33.333 12.167 -62.166 36.5 -86.499s53.166 -36.5 86.499 -36.5c36 0 65.5 11.5 88.5 34.5s34.5 52.5 34.5 88.5z" />
    <glyph glyph-name="acute" unicode="&#xb4;" horiz-adv-x="492" 
d="M422 1741l-168 -328h-172l172 328h168z" />
    <glyph glyph-name="middot" unicode="&#xb7;" horiz-adv-x="410" 
d="M328 535c0 -35.333 -11.667 -64.668 -35 -88.001s-52.666 -35 -87.999 -35c-34.667 0 -63.834 11.833 -87.501 35.5s-35.5 52.834 -35.5 87.501c0 34 11.833 62.833 35.5 86.5s52.834 35.5 87.501 35.5c35.333 0 64.666 -11.5 87.999 -34.5s35 -52.167 35 -87.5z" />
    <glyph glyph-name="cedilla" unicode="&#xb8;" horiz-adv-x="410" 
d="M328 -166c0 -21.333 -4.33203 -40.332 -12.999 -56.999l-131 -256h-164l111 215c-32.667 23.333 -49 56 -49 98c0 35.333 11.667 64.666 35 87.999s52.666 35 87.999 35c36 0 65.5 -11.5 88.5 -34.5s34.5 -52.5 34.5 -88.5z" />
    <glyph glyph-name="ordmasculine" unicode="&#xba;" horiz-adv-x="1024" 
d="M928 1206c0 -118.667 -42 -220 -126 -304s-185.333 -126 -304 -126s-219.667 41.833 -303 125.5s-125 185.167 -125 304.5c0 118.667 41.667 219.667 125 303s184.333 125 303 125c119.333 0 220.833 -41.5 304.5 -124.5s125.5 -184.167 125.5 -303.5zM944 473h-862v164
h862v-164zM791 1206c0 80.667 -28.668 149.332 -86.001 205.999s-126.333 85 -207 85c-81.333 0 -150.166 -28.167 -206.499 -84.5s-84.5 -125.166 -84.5 -206.499c0 -80.667 28.5 -149.667 85.5 -207s125.5 -86 205.5 -86c81.333 0 150.5 28.5 207.5 85.5
s85.5 126.167 85.5 207.5z" />
    <glyph glyph-name="guillemotright" unicode="&#xbb;" horiz-adv-x="1536" 
d="M1462 428l-819 -428v168l502 258l-502 258v168zM903 428l-819 -428v168l502 258l-502 258v168z" />
    <glyph glyph-name="questiondown" unicode="&#xbf;" horiz-adv-x="963" 
d="M524 1475c0 -36 -11.5 -65.501 -34.5 -88.501s-52.5 -34.5 -88.5 -34.5c-34.667 0 -63.667 11.833 -87 35.5s-35 52.834 -35 87.501c0 34 11.833 62.833 35.5 86.5s52.5 35.5 86.5 35.5c36 0 65.5 -11.333 88.5 -34s34.5 -52 34.5 -88zM872 419.999
c0 -126.667 -44.998 -235.167 -134.998 -325.5s-198.333 -135.5 -325 -135.5c-132 0 -242 45 -330 135l115 115c55.333 -57.333 127 -86 215 -86c84 0 154.5 28.5 211.5 85.5s85.5 127.5 85.5 211.5c0 84.667 -28.5 155.334 -85.5 212.001s-127.333 85 -211 85
s-154.834 28.167 -213.501 84.5s-88 125.833 -88 208.5c0 81.333 29.167 151.166 87.5 209.499s128.166 87.5 209.499 87.5c80.667 0 150.667 -28.667 210 -86l-114 -117c-24.667 26 -56.667 39 -96 39c-37.333 0 -69 -12.833 -95 -38.5s-39 -57.167 -39 -94.5
c0 -36.667 13 -67.334 39 -92.001s59 -37 99 -37c83.333 0 160.333 -20.667 231 -62s126.5 -97.666 167.5 -168.999s61.5 -148 61.5 -230z" />
    <glyph glyph-name="Agrave" unicode="&#xc0;" horiz-adv-x="1597" 
d="M967 1739h-172l-168 328h168zM1647 0h-172l-250 487h-863l-251 -487h-168l848 1638zM1141 651l-348 670l-344 -670h692z" />
    <glyph glyph-name="Aacute" unicode="&#xc1;" horiz-adv-x="1597" 
d="M1049 2067l-168 -328h-172l172 328h168zM1647 0h-172l-250 487h-863l-251 -487h-168l848 1638zM1141 651l-348 670l-344 -670h692z" />
    <glyph glyph-name="Acircumflex" unicode="&#xc2;" horiz-adv-x="1597" 
d="M1057 1741h-164l-86 166l-86 -166h-164l170 330h158zM1647 0h-172l-250 487h-863l-251 -487h-168l848 1638zM1141 651l-348 670l-344 -670h692z" />
    <glyph glyph-name="Atilde" unicode="&#xc3;" horiz-adv-x="1597" 
d="M1294 2040c0 -83.333 -28.667 -153.666 -86 -210.999s-127.666 -86 -210.999 -86c-66.667 0 -126.667 21.167 -180 63.5s-94.333 63.5 -123 63.5c-37.333 0 -68.833 -12.833 -94.5 -38.5s-38.5 -57.167 -38.5 -94.5h-164c0 83.333 28.667 153.666 86 210.999
s127.666 86 210.999 86c71.333 0 132.5 -21.167 183.5 -63.5s90.833 -63.5 119.5 -63.5c37.333 0 68.833 12.833 94.5 38.5s38.5 57.167 38.5 94.5h164zM1647 0h-172l-250 487h-863l-251 -487h-168l848 1638zM1141 651l-348 670l-344 -670h692z" />
    <glyph glyph-name="Adieresis" unicode="&#xc4;" horiz-adv-x="1597" 
d="M1207 1860c0 -35.333 -11.666 -64.667 -34.999 -88s-52.666 -35 -87.999 -35c-34.667 0 -63.834 11.833 -87.501 35.5s-35.5 52.834 -35.5 87.501c0 35.333 11.667 64.666 35 87.999s52.666 35 87.999 35c36 0 65.5 -11.5 88.5 -34.5s34.5 -52.5 34.5 -88.5z
M658.001 1860c0 -35.333 -11.666 -64.667 -34.999 -88s-52.666 -35 -87.999 -35c-34.667 0 -63.834 11.833 -87.501 35.5s-35.5 52.834 -35.5 87.501c0 35.333 11.667 64.666 35 87.999s52.666 35 87.999 35c36 0 65.5 -11.5 88.5 -34.5s34.5 -52.5 34.5 -88.5z
M1647 -0.00195312h-172l-250 487h-863l-251 -487h-168l848 1638zM1141 650.998l-348 670l-344 -670h692z" />
    <glyph glyph-name="Aring" unicode="&#xc5;" horiz-adv-x="1597" 
d="M1000 1907c0 -56.667 -20 -105 -60 -145s-88.333 -60 -145 -60s-105 20 -145 60s-60 88.333 -60 145s20 105 60 145s88.333 60 145 60s105 -20 145 -60s60 -88.333 60 -145zM1647 0h-172l-250 487h-863l-251 -487h-168l848 1638zM918 1907c0 36 -11.5 65.5 -34.5 88.5
s-52.5 34.5 -88.5 34.5c-35.333 0 -64.666 -11.667 -87.999 -35s-35 -52.666 -35 -87.999c0 -34 12 -63 36 -87s53 -36 87 -36c35.333 0 64.666 11.667 87.999 35s35 52.666 35 87.999zM1141 651l-348 670l-344 -670h692z" />
    <glyph glyph-name="AE" unicode="&#xc6;" horiz-adv-x="2499" 
d="M2499 0h-1024l-250 487h-863l-251 -487h-168l848 1638l20 -41h866l84 -163h-864l311 -594h736l84 -164h-736l269 -512h854zM1141 651l-348 670l-344 -670h692z" />
    <glyph glyph-name="Ccedilla" unicode="&#xc7;" horiz-adv-x="1577" 
d="M1505 193c-162.667 -158.667 -356.998 -237.999 -582.998 -237.999c-232.667 0 -430.834 82.5 -594.501 247.5s-245.5 363.833 -245.5 596.5c0 231.333 82.167 429 246.5 593s362.166 246 593.499 246c224 0 418.333 -79 583 -237l-116 -113
c-129.333 124.667 -285 187 -467 187c-129.333 0 -246 -30.667 -350 -92c-107.333 -62.667 -189.666 -150.667 -246.999 -264c-52.667 -104.667 -79 -211.334 -79 -320.001c0 -117.333 27.667 -227.5 83 -330.5s131.666 -186.167 228.999 -249.5
c103.333 -66.667 224.666 -100 363.999 -100c182.667 0 338.334 62 467.001 186zM1043 -171.999c0 -21.333 -4.33203 -40.332 -12.999 -56.999l-131 -256h-164l111 215c-32.667 23.333 -49 56 -49 98c0 35.333 11.667 64.666 35 87.999s52.666 35 87.999 35
c36 0 65.5 -11.5 88.5 -34.5s34.5 -52.5 34.5 -88.5z" />
    <glyph glyph-name="Egrave" unicode="&#xc8;" 
d="M680 1739h-172l-168 328h168zM1106 0h-1024v1597h1024v-163h-860v-594h737v-164h-737v-512h860v-164z" />
    <glyph glyph-name="Eacute" unicode="&#xc9;" horiz-adv-x="1106" 
d="M760 2067l-168 -328h-172l172 328h168zM1106 0h-1024v1597h1024v-163h-860v-594h737v-164h-737v-512h860v-164z" />
    <glyph glyph-name="Ecircumflex" unicode="&#xca;" 
d="M838 1741h-164l-86 166l-86 -166h-164l170 330h158zM1106 0h-1024v1597h1024v-163h-860v-594h737v-164h-737v-512h860v-164z" />
    <glyph glyph-name="Edieresis" unicode="&#xcb;" 
d="M1000 1860c0 -35.333 -11.666 -64.667 -34.999 -88s-52.666 -35 -87.999 -35c-34.667 0 -63.834 11.833 -87.501 35.5s-35.5 52.834 -35.5 87.501c0 35.333 11.667 64.666 35 87.999s52.666 35 87.999 35c36 0 65.5 -11.5 88.5 -34.5s34.5 -52.5 34.5 -88.5z
M451.001 1860c0 -35.333 -11.666 -64.667 -34.999 -88s-52.666 -35 -87.999 -35c-34.667 0 -63.834 11.833 -87.501 35.5s-35.5 52.834 -35.5 87.501c0 35.333 11.667 64.666 35 87.999s52.666 35 87.999 35c36 0 65.5 -11.5 88.5 -34.5s34.5 -52.5 34.5 -88.5z
M1106 -0.00195312h-1024v1597h1024v-163h-860v-594h737v-164h-737v-512h860v-164z" />
    <glyph glyph-name="Igrave" unicode="&#xcc;" horiz-adv-x="328" 
d="M311 1739h-172l-168 328h168zM246 0h-164v1597h164v-1597z" />
    <glyph glyph-name="Iacute" unicode="&#xcd;" horiz-adv-x="328" 
d="M373 2067l-168 -328h-172l172 328h168zM246 0h-164v1597h164v-1597z" />
    <glyph glyph-name="Icircumflex" unicode="&#xce;" horiz-adv-x="328" 
d="M426 1741h-164l-86 166l-86 -166h-164l170 330h158zM246 0h-164v1597h164v-1597z" />
    <glyph glyph-name="Idieresis" unicode="&#xcf;" horiz-adv-x="328" 
d="M570 1860c0 -35.333 -11.666 -64.667 -34.999 -88s-52.666 -35 -87.999 -35c-34.667 0 -63.834 11.833 -87.501 35.5s-35.5 52.834 -35.5 87.501c0 35.333 11.667 64.666 35 87.999s52.666 35 87.999 35c36 0 65.5 -11.5 88.5 -34.5s34.5 -52.5 34.5 -88.5zM21.001 1860
c0 -35.333 -11.666 -64.667 -34.999 -88s-52.666 -35 -87.999 -35c-34.667 0 -63.834 11.833 -87.501 35.5s-35.5 52.834 -35.5 87.501c0 35.333 11.667 64.666 35 87.999s52.666 35 87.999 35c36 0 65.5 -11.5 88.5 -34.5s34.5 -52.5 34.5 -88.5zM246.002 -0.00195312h-164
v1597h164v-1597z" />
    <glyph glyph-name="Ntilde" unicode="&#xd1;" horiz-adv-x="840" 
d="M854 2040c0 -83.333 -28.667 -153.666 -86 -210.999s-127.666 -86 -210.999 -86c-66.667 0 -126.667 21.167 -180 63.5s-94.333 63.5 -123 63.5c-37.333 0 -68.833 -12.833 -94.5 -38.5s-38.5 -57.167 -38.5 -94.5h-164c0 83.333 28.667 153.666 86 210.999
s127.666 86 210.999 86c71.333 0 132.5 -21.167 183.5 -63.5s90.833 -63.5 119.5 -63.5c37.333 0 68.833 12.833 94.5 38.5s38.5 57.167 38.5 94.5h164zM766 -41l-520 1006v-965h-164v1638l520 -1036v995h164v-1638z" />
    <glyph glyph-name="Ograve" unicode="&#xd2;" horiz-adv-x="1843" 
d="M1049 1739h-172l-168 328h168zM1761 799c0 -231.333 -82 -429.166 -246 -593.499s-361.667 -246.5 -593 -246.5s-429.166 82.167 -593.499 246.5s-246.5 362.166 -246.5 593.499s82.167 429 246.5 593s362.166 246 593.499 246c232 0 429.833 -81.833 593.5 -245.5
s245.5 -361.5 245.5 -593.5zM1597 799c0 129.333 -31.002 246.666 -93.002 351.999s-150 187 -264 245c-104 52.667 -210 79 -318 79c-129.333 0 -246.333 -30.667 -351 -92c-106.667 -63.333 -188.667 -152 -246 -266c-52.667 -104.667 -79 -210.667 -79 -318
c0 -139.333 33.333 -260.333 100 -363c62.667 -96.667 145.334 -173 248.001 -229s212 -84 328 -84c138.667 0 259.334 33.333 362.001 100c96.667 62.667 173 145.334 229 248.001s84 212 84 328z" />
    <glyph glyph-name="Oacute" unicode="&#xd3;" horiz-adv-x="1843" 
d="M1122 2067l-168 -328h-172l172 328h168zM1761 799c0 -231.333 -82 -429.166 -246 -593.499s-361.667 -246.5 -593 -246.5s-429.166 82.167 -593.499 246.5s-246.5 362.166 -246.5 593.499s82.167 429 246.5 593s362.166 246 593.499 246
c232 0 429.833 -81.833 593.5 -245.5s245.5 -361.5 245.5 -593.5zM1597 799c0 129.333 -31.002 246.666 -93.002 351.999s-150 187 -264 245c-104 52.667 -210 79 -318 79c-129.333 0 -246.333 -30.667 -351 -92c-106.667 -63.333 -188.667 -152 -246 -266
c-52.667 -104.667 -79 -210.667 -79 -318c0 -139.333 33.333 -260.333 100 -363c62.667 -96.667 145.334 -173 248.001 -229s212 -84 328 -84c138.667 0 259.334 33.333 362.001 100c96.667 62.667 173 145.334 229 248.001s84 212 84 328z" />
    <glyph glyph-name="Ocircumflex" unicode="&#xd4;" horiz-adv-x="1843" 
d="M1176 1741h-164l-86 166l-86 -166h-164l170 330h158zM1761 799c0 -231.333 -82 -429.166 -246 -593.499s-361.667 -246.5 -593 -246.5s-429.166 82.167 -593.499 246.5s-246.5 362.166 -246.5 593.499s82.167 429 246.5 593s362.166 246 593.499 246
c232 0 429.833 -81.833 593.5 -245.5s245.5 -361.5 245.5 -593.5zM1597 799c0 129.333 -31.002 246.666 -93.002 351.999s-150 187 -264 245c-104 52.667 -210 79 -318 79c-129.333 0 -246.333 -30.667 -351 -92c-106.667 -63.333 -188.667 -152 -246 -266
c-52.667 -104.667 -79 -210.667 -79 -318c0 -139.333 33.333 -260.333 100 -363c62.667 -96.667 145.334 -173 248.001 -229s212 -84 328 -84c138.667 0 259.334 33.333 362.001 100c96.667 62.667 173 145.334 229 248.001s84 212 84 328z" />
    <glyph glyph-name="Otilde" unicode="&#xd5;" horiz-adv-x="1843" 
d="M1401 2040c0 -83.333 -28.667 -153.666 -86 -210.999s-127.666 -86 -210.999 -86c-66.667 0 -126.667 21.167 -180 63.5s-94.333 63.5 -123 63.5c-37.333 0 -68.833 -12.833 -94.5 -38.5s-38.5 -57.167 -38.5 -94.5h-164c0 83.333 28.667 153.666 86 210.999
s127.666 86 210.999 86c71.333 0 132.5 -21.167 183.5 -63.5s90.833 -63.5 119.5 -63.5c37.333 0 68.833 12.833 94.5 38.5s38.5 57.167 38.5 94.5h164zM1761 799c0 -231.333 -82 -429.166 -246 -593.499s-361.667 -246.5 -593 -246.5s-429.166 82.167 -593.499 246.5
s-246.5 362.166 -246.5 593.499s82.167 429 246.5 593s362.166 246 593.499 246c232 0 429.833 -81.833 593.5 -245.5s245.5 -361.5 245.5 -593.5zM1597 799c0 129.333 -31.002 246.666 -93.002 351.999s-150 187 -264 245c-104 52.667 -210 79 -318 79
c-129.333 0 -246.333 -30.667 -351 -92c-106.667 -63.333 -188.667 -152 -246 -266c-52.667 -104.667 -79 -210.667 -79 -318c0 -139.333 33.333 -260.333 100 -363c62.667 -96.667 145.334 -173 248.001 -229s212 -84 328 -84c138.667 0 259.334 33.333 362.001 100
c96.667 62.667 173 145.334 229 248.001s84 212 84 328z" />
    <glyph glyph-name="Odieresis" unicode="&#xd6;" horiz-adv-x="1843" 
d="M1332 1860c0 -35.333 -11.666 -64.667 -34.999 -88s-52.666 -35 -87.999 -35c-34.667 0 -63.834 11.833 -87.501 35.5s-35.5 52.834 -35.5 87.501c0 35.333 11.667 64.666 35 87.999s52.666 35 87.999 35c36 0 65.5 -11.5 88.5 -34.5s34.5 -52.5 34.5 -88.5z
M783.001 1860c0 -35.333 -11.666 -64.667 -34.999 -88s-52.666 -35 -87.999 -35c-34.667 0 -63.834 11.833 -87.501 35.5s-35.5 52.834 -35.5 87.501c0 35.333 11.667 64.666 35 87.999s52.666 35 87.999 35c36 0 65.5 -11.5 88.5 -34.5s34.5 -52.5 34.5 -88.5z
M1761 798.998c0 -231.333 -82 -429.166 -246 -593.499s-361.667 -246.5 -593 -246.5s-429.166 82.167 -593.499 246.5s-246.5 362.166 -246.5 593.499s82.167 429 246.5 593s362.166 246 593.499 246c232 0 429.833 -81.833 593.5 -245.5s245.5 -361.5 245.5 -593.5z
M1597 798.998c0 129.333 -31.002 246.666 -93.002 351.999s-150 187 -264 245c-104 52.667 -210 79 -318 79c-129.333 0 -246.333 -30.667 -351 -92c-106.667 -63.333 -188.667 -152 -246 -266c-52.667 -104.667 -79 -210.667 -79 -318c0 -139.333 33.333 -260.333 100 -363
c62.667 -96.667 145.334 -173 248.001 -229s212 -84 328 -84c138.667 0 259.334 33.333 362.001 100c96.667 62.667 173 145.334 229 248.001s84 212 84 328z" />
    <glyph glyph-name="Oslash" unicode="&#xd8;" horiz-adv-x="1843" 
d="M1761 799c0 -231.333 -81.999 -429.165 -245.999 -593.498s-361.667 -246.5 -593 -246.5c-124 0 -243 26.667 -357 80l-53 -82h-190l102 166c-108 79.333 -192 178.333 -252 297s-90 245 -90 379c0 231.333 82.167 429 246.5 593s362.166 246 593.499 246
c117.333 0 229 -23 335 -69l37 69h191l-84 -151c114 -78.667 202.5 -178.334 265.5 -299.001s94.5 -250.334 94.5 -389.001zM1597 799.001c0 236.667 -92.002 419 -276.002 547l-674 -1164c86.667 -39.333 178.334 -59 275.001 -59c138.667 0 259.334 33.333 362.001 100
c96.667 62.667 173 145.5 229 248.5s84 212.167 84 327.5zM1176 1425c-78.667 33.333 -163.333 50 -254 50c-139.333 0 -260.333 -33.333 -363 -100c-96.667 -62.667 -173 -145.5 -229 -248.5s-84 -212.167 -84 -327.5c0 -224 86 -403 258 -537z" />
    <glyph glyph-name="Ugrave" unicode="&#xd9;" 
d="M705 1739h-172l-168 328h168zM1098 471c0 -142 -49.833 -262.832 -149.5 -362.499s-220.5 -149.5 -362.5 -149.5c-140 0 -259 50.333 -357 151s-147 221 -147 361v1126h164v-1126c0 -94.667 33 -176.334 99 -245.001s146.333 -103 241 -103c96 0 178 34 246 102
s102 150 102 246v1126h164v-1126z" />
    <glyph glyph-name="Uacute" unicode="&#xda;" 
d="M760 2067l-168 -328h-172l172 328h168zM1098 471c0 -142 -49.833 -262.832 -149.5 -362.499s-220.5 -149.5 -362.5 -149.5c-140 0 -259 50.333 -357 151s-147 221 -147 361v1126h164v-1126c0 -94.667 33 -176.334 99 -245.001s146.333 -103 241 -103c96 0 178 34 246 102
s102 150 102 246v1126h164v-1126z" />
    <glyph glyph-name="Ucircumflex" unicode="&#xdb;" 
d="M844 1741h-164l-86 166l-86 -166h-164l170 330h158zM1098 471c0 -142 -49.833 -262.832 -149.5 -362.499s-220.5 -149.5 -362.5 -149.5c-140 0 -259 50.333 -357 151s-147 221 -147 361v1126h164v-1126c0 -94.667 33 -176.334 99 -245.001s146.333 -103 241 -103
c96 0 178 34 246 102s102 150 102 246v1126h164v-1126z" />
    <glyph glyph-name="Udieresis" unicode="&#xdc;" 
d="M1000 1860c0 -35.333 -11.666 -64.667 -34.999 -88s-52.666 -35 -87.999 -35c-34.667 0 -63.834 11.833 -87.501 35.5s-35.5 52.834 -35.5 87.501c0 35.333 11.667 64.666 35 87.999s52.666 35 87.999 35c36 0 65.5 -11.5 88.5 -34.5s34.5 -52.5 34.5 -88.5z
M451.001 1860c0 -35.333 -11.666 -64.667 -34.999 -88s-52.666 -35 -87.999 -35c-34.667 0 -63.834 11.833 -87.501 35.5s-35.5 52.834 -35.5 87.501c0 35.333 11.667 64.666 35 87.999s52.666 35 87.999 35c36 0 65.5 -11.5 88.5 -34.5s34.5 -52.5 34.5 -88.5z
M1098 470.998c0 -142 -49.833 -262.832 -149.5 -362.499s-220.5 -149.5 -362.5 -149.5c-140 0 -259 50.333 -357 151s-147 221 -147 361v1126h164v-1126c0 -94.667 33 -176.334 99 -245.001s146.333 -103 241 -103c96 0 178 34 246 102s102 150 102 246v1126h164v-1126z" />
    <glyph glyph-name="germandbls" unicode="&#xdf;" 
d="M1106 471c0 -142 -49.8311 -262.836 -149.498 -362.503s-220.5 -149.5 -362.5 -149.5c-133.333 0 -249.333 45 -348 135l116 117c66 -58.667 143.333 -88 232 -88c96 0 178 34 246 102s102 150 102 246c0 96.667 -33.833 178.834 -101.5 246.501
s-149.834 101.5 -246.501 101.5v164c68 0 125.333 23.833 172 71.5s70 105.834 70 174.501s-23.833 126.834 -71.5 174.501s-105.834 71.5 -174.501 71.5c-66 0 -116.667 -18 -152 -54l-192 -194v-1227h-164v1597h164v-147c82 125.333 196.667 188 344 188
c113.333 0 209.833 -39.833 289.5 -119.5s119.5 -176.167 119.5 -289.5c0 -130.667 -49 -236 -147 -316c78.667 -46 140.667 -108.333 186 -187s68 -163.667 68 -255z" />
    <glyph glyph-name="agrave" unicode="&#xe0;" 
d="M735 1272h-172l-168 328h168zM1106 0h-164v94c-98.667 -90 -214.667 -135 -348 -135c-142 0 -262.833 49.833 -362.5 149.5s-149.5 220.5 -149.5 362.5s49.833 262.833 149.5 362.5s220.5 149.5 362.5 149.5c133.333 0 249.333 -45.667 348 -137v96h164v-942zM942 471
c0 96.667 -33.832 178.835 -101.499 246.502s-149.834 101.5 -246.501 101.5s-178.834 -33.833 -246.501 -101.5s-101.5 -149.834 -101.5 -246.501s33.833 -178.834 101.5 -246.501s149.834 -101.5 246.501 -101.5c96 0 178 34 246 102s102 150 102 246z" />
    <glyph glyph-name="aacute" unicode="&#xe1;" 
d="M821 1600l-168 -328h-172l172 328h168zM1106 0h-164v94c-98.667 -90 -214.667 -135 -348 -135c-142 0 -262.833 49.833 -362.5 149.5s-149.5 220.5 -149.5 362.5s49.833 262.833 149.5 362.5s220.5 149.5 362.5 149.5c133.333 0 249.333 -45.667 348 -137v96h164v-942z
M942 471c0 96.667 -33.832 178.835 -101.499 246.502s-149.834 101.5 -246.501 101.5s-178.834 -33.833 -246.501 -101.5s-101.5 -149.834 -101.5 -246.501s33.833 -178.834 101.5 -246.501s149.834 -101.5 246.501 -101.5c96 0 178 34 246 102s102 150 102 246z" />
    <glyph glyph-name="acircumflex" unicode="&#xe2;" 
d="M838 1268h-164l-86 166l-86 -166h-164l170 330h158zM1106 0h-164v94c-98.667 -90 -214.667 -135 -348 -135c-142 0 -262.833 49.833 -362.5 149.5s-149.5 220.5 -149.5 362.5s49.833 262.833 149.5 362.5s220.5 149.5 362.5 149.5c133.333 0 249.333 -45.667 348 -137v96
h164v-942zM942 471c0 96.667 -33.832 178.835 -101.499 246.502s-149.834 101.5 -246.501 101.5s-178.834 -33.833 -246.501 -101.5s-101.5 -149.834 -101.5 -246.501s33.833 -178.834 101.5 -246.501s149.834 -101.5 246.501 -101.5c96 0 178 34 246 102s102 150 102 246z
" />
    <glyph glyph-name="atilde" unicode="&#xe3;" 
d="M1063 1598c0 -83.333 -28.667 -153.666 -86 -210.999s-127.666 -86 -210.999 -86c-66.667 0 -126.667 21.167 -180 63.5s-94.333 63.5 -123 63.5c-37.333 0 -68.833 -12.833 -94.5 -38.5s-38.5 -57.167 -38.5 -94.5h-164c0 83.333 28.667 153.666 86 210.999
s127.666 86 210.999 86c71.333 0 132.5 -21.167 183.5 -63.5s90.833 -63.5 119.5 -63.5c37.333 0 68.833 12.833 94.5 38.5s38.5 57.167 38.5 94.5h164zM1106 0h-164v94c-98.667 -90 -214.667 -135 -348 -135c-142 0 -262.833 49.833 -362.5 149.5
s-149.5 220.5 -149.5 362.5s49.833 262.833 149.5 362.5s220.5 149.5 362.5 149.5c133.333 0 249.333 -45.667 348 -137v96h164v-942zM942 471c0 96.667 -33.832 178.835 -101.499 246.502s-149.834 101.5 -246.501 101.5s-178.834 -33.833 -246.501 -101.5
s-101.5 -149.834 -101.5 -246.501s33.833 -178.834 101.5 -246.501s149.834 -101.5 246.501 -101.5c96 0 178 34 246 102s102 150 102 246z" />
    <glyph glyph-name="adieresis" unicode="&#xe4;" 
d="M994 1473c0 -35.333 -11.666 -64.667 -34.999 -88s-52.666 -35 -87.999 -35c-34.667 0 -63.834 11.833 -87.501 35.5s-35.5 52.834 -35.5 87.501c0 35.333 11.667 64.666 35 87.999s52.666 35 87.999 35c36 0 65.5 -11.5 88.5 -34.5s34.5 -52.5 34.5 -88.5zM445.001 1473
c0 -35.333 -11.666 -64.667 -34.999 -88s-52.666 -35 -87.999 -35c-34.667 0 -63.834 11.833 -87.501 35.5s-35.5 52.834 -35.5 87.501c0 35.333 11.667 64.666 35 87.999s52.666 35 87.999 35c36 0 65.5 -11.5 88.5 -34.5s34.5 -52.5 34.5 -88.5zM1106 -0.00195312h-164v94
c-98.667 -90 -214.667 -135 -348 -135c-142 0 -262.833 49.833 -362.5 149.5s-149.5 220.5 -149.5 362.5s49.833 262.833 149.5 362.5s220.5 149.5 362.5 149.5c133.333 0 249.333 -45.667 348 -137v96h164v-942zM942.002 470.998
c0 96.667 -33.832 178.835 -101.499 246.502s-149.834 101.5 -246.501 101.5s-178.834 -33.833 -246.501 -101.5s-101.5 -149.834 -101.5 -246.501s33.833 -178.834 101.5 -246.501s149.834 -101.5 246.501 -101.5c96 0 178 34 246 102s102 150 102 246z" />
    <glyph glyph-name="aring" unicode="&#xe5;" 
d="M799 1434c0 -56.667 -20 -105 -60 -145s-88.333 -60 -145 -60s-105 20 -145 60s-60 88.333 -60 145s20 105 60 145s88.333 60 145 60s105 -20 145 -60s60 -88.333 60 -145zM1106 0h-164v94c-98.667 -90 -214.667 -135 -348 -135c-142 0 -262.833 49.833 -362.5 149.5
s-149.5 220.5 -149.5 362.5s49.833 262.833 149.5 362.5s220.5 149.5 362.5 149.5c133.333 0 249.333 -45.667 348 -137v96h164v-942zM717 1434c0 36 -11.5 65.5 -34.5 88.5s-52.5 34.5 -88.5 34.5c-35.333 0 -64.666 -11.667 -87.999 -35s-35 -52.666 -35 -87.999
c0 -34 12 -63 36 -87s53 -36 87 -36c35.333 0 64.666 11.667 87.999 35s35 52.666 35 87.999zM942 471c0 96.667 -33.832 178.835 -101.499 246.502s-149.834 101.5 -246.501 101.5s-178.834 -33.833 -246.501 -101.5s-101.5 -149.834 -101.5 -246.501
s33.833 -178.834 101.5 -246.501s149.834 -101.5 246.501 -101.5c96 0 178 34 246 102s102 150 102 246z" />
    <glyph glyph-name="ae" unicode="&#xe6;" horiz-adv-x="2048" 
d="M1966 471c0 -27.333 -1.99707 -54.667 -5.99707 -82h-844c19.333 -78.667 60.166 -142.667 122.499 -192s134.166 -74 215.499 -74c87.333 0 164.666 29.333 231.999 88l116 -117c-98.667 -90 -214.667 -135 -348 -135c-134 0 -250 45.667 -348 137v-137h-164v135
c-98.667 -90 -214.667 -135 -348 -135c-142 0 -262.833 49.833 -362.5 149.5s-149.5 220.5 -149.5 362.5s49.833 262.833 149.5 362.5s220.5 149.5 362.5 149.5c133.333 0 249.333 -45.667 348 -137v139h164v-137c98.667 90 214.667 135 348 135
c142 0 262.833 -49.833 362.5 -149.5s149.5 -220.5 149.5 -362.5zM1792 552.999c-18 78 -58.6689 141.833 -122.002 191.5s-135.333 74.5 -216 74.5c-81.333 0 -153.166 -24.667 -215.499 -74s-103.166 -113.333 -122.499 -192h676zM942.001 470.999
c0 96.667 -33.832 178.835 -101.499 246.502s-149.834 101.5 -246.501 101.5s-178.834 -33.833 -246.501 -101.5s-101.5 -149.834 -101.5 -246.501s33.833 -178.834 101.5 -246.501s149.834 -101.5 246.501 -101.5c96 0 178 34 246 102s102 150 102 246z" />
    <glyph glyph-name="ccedilla" unicode="&#xe7;" horiz-adv-x="1024" 
d="M942 94c-98.667 -90 -214.667 -134.998 -348 -134.998c-142 0 -262.833 49.833 -362.5 149.5s-149.5 220.5 -149.5 362.5s49.833 262.833 149.5 362.5s220.5 149.5 362.5 149.5c133.333 0 249.333 -45.667 348 -137l-117 -115c-65.333 58.667 -142.333 88 -231 88
c-96.667 0 -178.834 -33.833 -246.501 -101.5s-101.5 -149.834 -101.5 -246.501s33.833 -178.834 101.5 -246.501s149.834 -101.5 246.501 -101.5c88.667 0 165.667 29.333 231 88zM723 -165.998c0 -21.333 -4.33203 -40.332 -12.999 -56.999l-131 -256h-164l111 215
c-32.667 23.333 -49 56 -49 98c0 35.333 11.667 64.666 35 87.999s52.666 35 87.999 35c36 0 65.5 -11.5 88.5 -34.5s34.5 -52.5 34.5 -88.5z" />
    <glyph glyph-name="egrave" unicode="&#xe8;" 
d="M723 1272h-172l-168 328h168zM1106 471c0 -27.333 -1.99805 -54.667 -5.99805 -82h-844c19.333 -78.667 60.166 -142.667 122.499 -192s134.166 -74 215.499 -74c88.667 0 165.667 29.333 231 88l117 -117c-98.667 -90 -214.667 -135 -348 -135
c-142 0 -262.833 49.833 -362.5 149.5s-149.5 220.5 -149.5 362.5s49.833 262.833 149.5 362.5s220.5 149.5 362.5 149.5s262.833 -49.833 362.5 -149.5s149.5 -220.5 149.5 -362.5zM932.002 552.999c-18 78 -58.6689 141.833 -122.002 191.5s-135.333 74.5 -216 74.5
c-81.333 0 -153.166 -24.667 -215.499 -74s-103.166 -113.333 -122.499 -192h676z" />
    <glyph glyph-name="eacute" unicode="&#xe9;" 
d="M803 1600l-168 -328h-172l172 328h168zM1106 471c0 -27.333 -1.99805 -54.667 -5.99805 -82h-844c19.333 -78.667 60.166 -142.667 122.499 -192s134.166 -74 215.499 -74c88.667 0 165.667 29.333 231 88l117 -117c-98.667 -90 -214.667 -135 -348 -135
c-142 0 -262.833 49.833 -362.5 149.5s-149.5 220.5 -149.5 362.5s49.833 262.833 149.5 362.5s220.5 149.5 362.5 149.5s262.833 -49.833 362.5 -149.5s149.5 -220.5 149.5 -362.5zM932.002 552.999c-18 78 -58.6689 141.833 -122.002 191.5s-135.333 74.5 -216 74.5
c-81.333 0 -153.166 -24.667 -215.499 -74s-103.166 -113.333 -122.499 -192h676z" />
    <glyph glyph-name="ecircumflex" unicode="&#xea;" 
d="M844 1268h-164l-86 166l-86 -166h-164l170 330h158zM1106 471c0 -27.333 -1.99805 -54.667 -5.99805 -82h-844c19.333 -78.667 60.166 -142.667 122.499 -192s134.166 -74 215.499 -74c88.667 0 165.667 29.333 231 88l117 -117c-98.667 -90 -214.667 -135 -348 -135
c-142 0 -262.833 49.833 -362.5 149.5s-149.5 220.5 -149.5 362.5s49.833 262.833 149.5 362.5s220.5 149.5 362.5 149.5s262.833 -49.833 362.5 -149.5s149.5 -220.5 149.5 -362.5zM932.002 552.999c-18 78 -58.6689 141.833 -122.002 191.5s-135.333 74.5 -216 74.5
c-81.333 0 -153.166 -24.667 -215.499 -74s-103.166 -113.333 -122.499 -192h676z" />
    <glyph glyph-name="edieresis" unicode="&#xeb;" 
d="M1000 1473c0 -35.333 -11.666 -64.667 -34.999 -88s-52.666 -35 -87.999 -35c-34.667 0 -63.834 11.833 -87.501 35.5s-35.5 52.834 -35.5 87.501c0 35.333 11.667 64.666 35 87.999s52.666 35 87.999 35c36 0 65.5 -11.5 88.5 -34.5s34.5 -52.5 34.5 -88.5z
M451.001 1473c0 -35.333 -11.666 -64.667 -34.999 -88s-52.666 -35 -87.999 -35c-34.667 0 -63.834 11.833 -87.501 35.5s-35.5 52.834 -35.5 87.501c0 35.333 11.667 64.666 35 87.999s52.666 35 87.999 35c36 0 65.5 -11.5 88.5 -34.5s34.5 -52.5 34.5 -88.5z
M1106 470.998c0 -27.333 -1.99805 -54.667 -5.99805 -82h-844c19.333 -78.667 60.166 -142.667 122.499 -192s134.166 -74 215.499 -74c88.667 0 165.667 29.333 231 88l117 -117c-98.667 -90 -214.667 -135 -348 -135c-142 0 -262.833 49.833 -362.5 149.5
s-149.5 220.5 -149.5 362.5s49.833 262.833 149.5 362.5s220.5 149.5 362.5 149.5s262.833 -49.833 362.5 -149.5s149.5 -220.5 149.5 -362.5zM932.004 552.997c-18 78 -58.6689 141.833 -122.002 191.5s-135.333 74.5 -216 74.5c-81.333 0 -153.166 -24.667 -215.499 -74
s-103.166 -113.333 -122.499 -192h676z" />
    <glyph glyph-name="igrave" unicode="&#xec;" horiz-adv-x="328" 
d="M318 1272h-172l-168 328h168zM246 0h-164v942h164v-942z" />
    <glyph glyph-name="iacute" unicode="&#xed;" horiz-adv-x="328" 
d="M348 1594l-168 -328h-172l172 328h168zM246 0h-164v942h164v-942z" />
    <glyph glyph-name="icircumflex" unicode="&#xee;" horiz-adv-x="328" 
d="M420 1268h-164l-86 166l-86 -166h-164l170 330h158zM246 0h-164v942h164v-942z" />
    <glyph glyph-name="idieresis" unicode="&#xef;" horiz-adv-x="328" 
d="M588 1473c0 -35.333 -11.666 -64.667 -34.999 -88s-52.666 -35 -87.999 -35c-34.667 0 -63.834 11.833 -87.501 35.5s-35.5 52.834 -35.5 87.501c0 35.333 11.667 64.666 35 87.999s52.666 35 87.999 35c36 0 65.5 -11.5 88.5 -34.5s34.5 -52.5 34.5 -88.5zM39.001 1473
c0 -35.333 -11.666 -64.667 -34.999 -88s-52.666 -35 -87.999 -35c-34.667 0 -63.834 11.833 -87.501 35.5s-35.5 52.834 -35.5 87.501c0 35.333 11.667 64.666 35 87.999s52.666 35 87.999 35c36 0 65.5 -11.5 88.5 -34.5s34.5 -52.5 34.5 -88.5zM246.002 -0.00195312h-164
v942h164v-942z" />
    <glyph glyph-name="ntilde" unicode="&#xf1;" 
d="M1045 1598c0 -83.333 -28.667 -153.666 -86 -210.999s-127.666 -86 -210.999 -86c-66.667 0 -126.667 21.167 -180 63.5s-94.333 63.5 -123 63.5c-37.333 0 -68.833 -12.833 -94.5 -38.5s-38.5 -57.167 -38.5 -94.5h-164c0 83.333 28.667 153.666 86 210.999
s127.666 86 210.999 86c71.333 0 132.5 -21.167 183.5 -63.5s90.833 -63.5 119.5 -63.5c37.333 0 68.833 12.833 94.5 38.5s38.5 57.167 38.5 94.5h164zM1106 0h-163.998v471c0 96.667 -33.833 178.834 -101.5 246.501s-149.834 101.5 -246.501 101.5
s-178.834 -33.833 -246.501 -101.5s-101.5 -149.834 -101.5 -246.501v-471h-164v942h164v-96c98 91.333 214 137 348 137c142 0 262.833 -49.833 362.5 -149.5s149.5 -220.5 149.5 -362.5v-471z" />
    <glyph glyph-name="ograve" unicode="&#xf2;" 
d="M741 1278h-172l-168 328h168zM1106 471c0 -142 -49.833 -262.833 -149.5 -362.5s-220.5 -149.5 -362.5 -149.5s-262.833 49.833 -362.5 149.5s-149.5 220.5 -149.5 362.5s49.833 262.833 149.5 362.5s220.5 149.5 362.5 149.5s262.833 -49.833 362.5 -149.5
s149.5 -220.5 149.5 -362.5zM942 471c0 96.667 -33.832 178.835 -101.499 246.502s-149.834 101.5 -246.501 101.5s-178.834 -33.833 -246.501 -101.5s-101.5 -149.834 -101.5 -246.501s33.833 -178.834 101.5 -246.501s149.834 -101.5 246.501 -101.5c96 0 178 34 246 102
s102 150 102 246z" />
    <glyph glyph-name="oacute" unicode="&#xf3;" 
d="M821 1600l-168 -328h-172l172 328h168zM1106 471c0 -142 -49.833 -262.833 -149.5 -362.5s-220.5 -149.5 -362.5 -149.5s-262.833 49.833 -362.5 149.5s-149.5 220.5 -149.5 362.5s49.833 262.833 149.5 362.5s220.5 149.5 362.5 149.5s262.833 -49.833 362.5 -149.5
s149.5 -220.5 149.5 -362.5zM942 471c0 96.667 -33.832 178.835 -101.499 246.502s-149.834 101.5 -246.501 101.5s-178.834 -33.833 -246.501 -101.5s-101.5 -149.834 -101.5 -246.501s33.833 -178.834 101.5 -246.501s149.834 -101.5 246.501 -101.5c96 0 178 34 246 102
s102 150 102 246z" />
    <glyph glyph-name="ocircumflex" unicode="&#xf4;" 
d="M850 1268h-164l-86 166l-86 -166h-164l170 330h158zM1106 471c0 -142 -49.833 -262.833 -149.5 -362.5s-220.5 -149.5 -362.5 -149.5s-262.833 49.833 -362.5 149.5s-149.5 220.5 -149.5 362.5s49.833 262.833 149.5 362.5s220.5 149.5 362.5 149.5
s262.833 -49.833 362.5 -149.5s149.5 -220.5 149.5 -362.5zM942 471c0 96.667 -33.832 178.835 -101.499 246.502s-149.834 101.5 -246.501 101.5s-178.834 -33.833 -246.501 -101.5s-101.5 -149.834 -101.5 -246.501s33.833 -178.834 101.5 -246.501
s149.834 -101.5 246.501 -101.5c96 0 178 34 246 102s102 150 102 246z" />
    <glyph glyph-name="otilde" unicode="&#xf5;" 
d="M1038 1598c0 -83.333 -28.667 -153.666 -86 -210.999s-127.666 -86 -210.999 -86c-66.667 0 -126.667 21.167 -180 63.5s-94.333 63.5 -123 63.5c-37.333 0 -68.833 -12.833 -94.5 -38.5s-38.5 -57.167 -38.5 -94.5h-164c0 83.333 28.667 153.666 86 210.999
s127.666 86 210.999 86c71.333 0 132.5 -21.167 183.5 -63.5s90.833 -63.5 119.5 -63.5c37.333 0 68.833 12.833 94.5 38.5s38.5 57.167 38.5 94.5h164zM1106 471c0 -142 -49.833 -262.833 -149.5 -362.5s-220.5 -149.5 -362.5 -149.5s-262.833 49.833 -362.5 149.5
s-149.5 220.5 -149.5 362.5s49.833 262.833 149.5 362.5s220.5 149.5 362.5 149.5s262.833 -49.833 362.5 -149.5s149.5 -220.5 149.5 -362.5zM942 471c0 96.667 -33.832 178.835 -101.499 246.502s-149.834 101.5 -246.501 101.5s-178.834 -33.833 -246.501 -101.5
s-101.5 -149.834 -101.5 -246.501s33.833 -178.834 101.5 -246.501s149.834 -101.5 246.501 -101.5c96 0 178 34 246 102s102 150 102 246z" />
    <glyph glyph-name="odieresis" unicode="&#xf6;" 
d="M1024 1473c0 -35.333 -11.666 -64.667 -34.999 -88s-52.666 -35 -87.999 -35c-34.667 0 -63.834 11.833 -87.501 35.5s-35.5 52.834 -35.5 87.501c0 35.333 11.667 64.666 35 87.999s52.666 35 87.999 35c36 0 65.5 -11.5 88.5 -34.5s34.5 -52.5 34.5 -88.5z
M475.001 1473c0 -35.333 -11.666 -64.667 -34.999 -88s-52.666 -35 -87.999 -35c-34.667 0 -63.834 11.833 -87.501 35.5s-35.5 52.834 -35.5 87.501c0 35.333 11.667 64.666 35 87.999s52.666 35 87.999 35c36 0 65.5 -11.5 88.5 -34.5s34.5 -52.5 34.5 -88.5z
M1106 470.998c0 -142 -49.833 -262.833 -149.5 -362.5s-220.5 -149.5 -362.5 -149.5s-262.833 49.833 -362.5 149.5s-149.5 220.5 -149.5 362.5s49.833 262.833 149.5 362.5s220.5 149.5 362.5 149.5s262.833 -49.833 362.5 -149.5s149.5 -220.5 149.5 -362.5z
M942.002 470.998c0 96.667 -33.832 178.835 -101.499 246.502s-149.834 101.5 -246.501 101.5s-178.834 -33.833 -246.501 -101.5s-101.5 -149.834 -101.5 -246.501s33.833 -178.834 101.5 -246.501s149.834 -101.5 246.501 -101.5c96 0 178 34 246 102s102 150 102 246z
" />
    <glyph glyph-name="oslash" unicode="&#xf8;" 
d="M1106 471c0 -142 -49.833 -262.833 -149.5 -362.5s-220.5 -149.5 -362.5 -149.5c-64 0 -126 11.667 -186 35l-21 -35h-190l69 119c-122.667 101.333 -184 232.333 -184 393c0 142 49.833 262.833 149.5 362.5s220.5 149.5 362.5 149.5c63.333 0 122 -10.333 176 -31
l18 31h191l-66 -113c128.667 -100 193 -233 193 -399zM942 471c0 103.333 -37.667 188.667 -113 256l-337 -590c37.333 -9.33301 71.333 -14 102 -14c96 0 178 34 246 102s102 150 102 246zM686 807.001c-28.667 8 -59.332 12.001 -91.999 12.001
c-96.667 0 -178.834 -33.833 -246.501 -101.5s-101.5 -149.834 -101.5 -246.501c0 -96 34.667 -178.667 104 -248z" />
    <glyph glyph-name="ugrave" unicode="&#xf9;" 
d="M791 1315h-172l-168 328h168zM1098 471c0 -142 -49.833 -262.832 -149.5 -362.499s-220.5 -149.5 -362.5 -149.5c-140 0 -259 50.333 -357 151s-147 221 -147 361v471h164v-471c0 -94.667 33 -176.334 99 -245.001s146.333 -103 241 -103c96 0 178 34 246 102
s102 150 102 246v471h164v-471z" />
    <glyph glyph-name="uacute" unicode="&#xfa;" 
d="M809 1600l-168 -328h-172l172 328h168zM1098 471c0 -142 -49.833 -262.832 -149.5 -362.499s-220.5 -149.5 -362.5 -149.5c-140 0 -259 50.333 -357 151s-147 221 -147 361v471h164v-471c0 -94.667 33 -176.334 99 -245.001s146.333 -103 241 -103c96 0 178 34 246 102
s102 150 102 246v471h164v-471z" />
    <glyph glyph-name="ucircumflex" unicode="&#xfb;" 
d="M844 1311h-164l-86 166l-86 -166h-164l170 330h158zM1098 471c0 -142 -49.833 -262.832 -149.5 -362.499s-220.5 -149.5 -362.5 -149.5c-140 0 -259 50.333 -357 151s-147 221 -147 361v471h164v-471c0 -94.667 33 -176.334 99 -245.001s146.333 -103 241 -103
c96 0 178 34 246 102s102 150 102 246v471h164v-471z" />
    <glyph glyph-name="udieresis" unicode="&#xfc;" 
d="M988 1473c0 -35.333 -11.666 -64.667 -34.999 -88s-52.666 -35 -87.999 -35c-34.667 0 -63.834 11.833 -87.501 35.5s-35.5 52.834 -35.5 87.501c0 35.333 11.667 64.666 35 87.999s52.666 35 87.999 35c36 0 65.5 -11.5 88.5 -34.5s34.5 -52.5 34.5 -88.5zM439.001 1473
c0 -35.333 -11.666 -64.667 -34.999 -88s-52.666 -35 -87.999 -35c-34.667 0 -63.834 11.833 -87.501 35.5s-35.5 52.834 -35.5 87.501c0 35.333 11.667 64.666 35 87.999s52.666 35 87.999 35c36 0 65.5 -11.5 88.5 -34.5s34.5 -52.5 34.5 -88.5zM1098 470.998
c0 -142 -49.833 -262.832 -149.5 -362.499s-220.5 -149.5 -362.5 -149.5c-140 0 -259 50.333 -357 151s-147 221 -147 361v471h164v-471c0 -94.667 33 -176.334 99 -245.001s146.333 -103 241 -103c96 0 178 34 246 102s102 150 102 246v471h164v-471z" />
    <glyph glyph-name="ydieresis" unicode="&#xff;" 
d="M988 1473c0 -35.333 -11.666 -64.667 -34.999 -88s-52.666 -35 -87.999 -35c-34.667 0 -63.834 11.833 -87.501 35.5s-35.5 52.834 -35.5 87.501c0 35.333 11.667 64.666 35 87.999s52.666 35 87.999 35c36 0 65.5 -11.5 88.5 -34.5s34.5 -52.5 34.5 -88.5zM439.001 1473
c0 -35.333 -11.666 -64.667 -34.999 -88s-52.666 -35 -87.999 -35c-34.667 0 -63.834 11.833 -87.501 35.5s-35.5 52.834 -35.5 87.501c0 35.333 11.667 64.666 35 87.999s52.666 35 87.999 35c36 0 65.5 -11.5 88.5 -34.5s34.5 -52.5 34.5 -88.5zM1098 941.998l-791 -1515
h-164l361 690l-422 825h164l342 -666l346 666h164z" />
    <glyph glyph-name="dotlessi" unicode="&#x131;" horiz-adv-x="328" 
d="M246 0h-164v942h164v-942z" />
    <glyph glyph-name="OE" unicode="&#x152;" horiz-adv-x="2621" 
d="M2540 0h-1024v303c-78.667 -108.667 -177.334 -193.167 -296.001 -253.5s-245.334 -90.5 -380.001 -90.5c-231.333 0 -429.166 82.167 -593.499 246.5s-246.5 362.166 -246.5 593.499s82.167 429 246.5 593s362.166 246 593.499 246c133.333 0 259 -30.167 377 -90.5
s217.667 -144.166 299 -251.499v301h1024v-163h-861v-594h738v-164h-738v-512h861v-164zM1516 799c0 129.333 -30.668 246.332 -92.001 350.999c-63.333 106.667 -152 188.667 -266 246c-104.667 52.667 -210.667 79 -318 79c-129.333 0 -246.333 -30.667 -351 -92
c-106.667 -63.333 -188.667 -152 -246 -266c-52.667 -104.667 -79 -210.667 -79 -318c0 -139.333 33.333 -260.333 100 -363c62.667 -96.667 145.334 -173 248.001 -229s212 -84 328 -84c139.333 0 260.333 33.333 363 100c96.667 62.667 173 145.334 229 248.001
s84 212 84 328z" />
    <glyph glyph-name="oe" unicode="&#x153;" horiz-adv-x="2048" 
d="M1966 471c0 -27.333 -1.99805 -54.667 -5.99805 -82h-844c19.333 -78.667 60.166 -142.667 122.499 -192s134.166 -74 215.499 -74c87.333 0 164.666 29.333 231.999 88l116 -117c-98.667 -90 -214.667 -135 -348 -135c-87.333 0 -169.166 20.833 -245.499 62.5
s-137.833 99.5 -184.5 173.5c-45.333 -74 -106.5 -131.833 -183.5 -173.5s-159.167 -62.5 -246.5 -62.5c-142 0 -262.833 49.833 -362.5 149.5s-149.5 220.5 -149.5 362.5s49.833 262.833 149.5 362.5s220.5 149.5 362.5 149.5c186 0 329.333 -77.667 430 -233
c46.667 72.667 108.5 129.667 185.5 171s158.5 62 244.5 62c142 0 262.833 -49.833 362.5 -149.5s149.5 -220.5 149.5 -362.5zM1792 552.999c-18 78 -58.6689 141.833 -122.002 191.5s-135.333 74.5 -216 74.5c-81.333 0 -153.166 -24.667 -215.499 -74
s-103.166 -113.333 -122.499 -192h676zM942 470.999c0 96.667 -33.832 178.835 -101.499 246.502s-149.834 101.5 -246.501 101.5s-178.834 -33.833 -246.501 -101.5s-101.5 -149.834 -101.5 -246.501s33.833 -178.834 101.5 -246.501s149.834 -101.5 246.501 -101.5
c96 0 178 34 246 102s102 150 102 246z" />
    <glyph glyph-name="Ydieresis" unicode="&#x178;" 
d="M1012 1860c0 -36 -11.5 -65.501 -34.5 -88.501s-52.5 -34.5 -88.5 -34.5c-34.667 0 -63.834 11.833 -87.501 35.5s-35.5 52.834 -35.5 87.501c0 34 11.833 62.833 35.5 86.5s52.834 35.5 87.501 35.5c36 0 65.5 -11.333 88.5 -34s34.5 -52 34.5 -88zM463 1860
c0 -36 -11.5 -65.501 -34.5 -88.501s-52.5 -34.5 -88.5 -34.5c-34.667 0 -63.834 11.833 -87.501 35.5s-35.5 52.834 -35.5 87.501c0 34 11.833 62.833 35.5 86.5s52.834 35.5 87.501 35.5c36 0 65.5 -11.333 88.5 -34s34.5 -52 34.5 -88zM1098 1597l-430 -825v-772h-164
v774l-422 823h164l342 -665l346 665h164z" />
    <glyph glyph-name="circumflex" unicode="&#x2c6;" horiz-adv-x="676" 
d="M592 1409h-164l-86 166l-86 -166h-164l170 330h158z" />
    <glyph glyph-name="ring" unicode="&#x2da;" horiz-adv-x="573" 
d="M492 1581c0 -56.667 -20 -105 -60 -145s-88.333 -60 -145 -60s-105 20 -145 60s-60 88.333 -60 145s20 105 60 145s88.333 60 145 60s105 -20 145 -60s60 -88.333 60 -145zM410 1581c0 36 -11.5 65.5 -34.5 88.5s-52.5 34.5 -88.5 34.5
c-35.333 0 -64.666 -11.667 -87.999 -35s-35 -52.666 -35 -87.999c0 -34 12 -63 36 -87s53 -36 87 -36c35.333 0 64.666 11.667 87.999 35s35 52.666 35 87.999z" />
    <glyph glyph-name="tilde" unicode="&#x2dc;" horiz-adv-x="1065" 
d="M977 1782c0 -83.333 -28.667 -153.666 -86 -210.999s-127.666 -86 -210.999 -86c-66.667 0 -126.667 21.167 -180 63.5s-94.333 63.5 -123 63.5c-37.333 0 -68.833 -12.833 -94.5 -38.5s-38.5 -57.167 -38.5 -94.5h-164c0 83.333 28.667 153.666 86 210.999
s127.666 86 210.999 86c71.333 0 132.5 -21.167 183.5 -63.5s90.833 -63.5 119.5 -63.5c37.333 0 68.833 12.833 94.5 38.5s38.5 57.167 38.5 94.5h164z" />
    <glyph glyph-name="afii10023" unicode="&#x401;" 
d="M999 1860c0 -36 -11.334 -65.499 -34.001 -88.499s-52 -34.5 -88 -34.5c-33.333 0 -62.166 12.167 -86.499 36.5s-36.5 53.166 -36.5 86.499c0 36 11.5 65.333 34.5 88s52.5 34 88.5 34c81.333 0 122 -40.667 122 -122zM450.999 1860
c0 -36 -11.501 -65.499 -34.501 -88.499s-52.5 -34.5 -88.5 -34.5c-33.333 0 -62.166 12.167 -86.499 36.5s-36.5 53.166 -36.5 86.499c0 36 11.5 65.333 34.5 88s52.5 34 88.5 34c82 0 123 -40.667 123 -122zM1106 0.00195312h-1024v1597h1024v-163h-860v-594h737v-164
h-737v-512h860v-164z" />
    <glyph glyph-name="afii10051" unicode="&#x402;" horiz-adv-x="1559" 
d="M1477 471c0 -196 -85.332 -343.334 -255.999 -442.001c-80.667 -46.667 -166 -70 -256 -70v164c96.667 0 178.834 33.833 246.501 101.5s101.5 149.834 101.5 246.501s-33.833 178.834 -101.5 246.501s-149.834 101.5 -246.501 101.5
c-97.333 0 -179.833 -33.833 -247.5 -101.5s-101.5 -149.834 -101.5 -246.501v-471h-163l-2 1434h-369v163h901v-163h-367v-588c96 91.333 212.333 137 349 137c195.333 0 342.666 -84 441.999 -252c46.667 -79.333 70 -166 70 -260z" />
    <glyph glyph-name="afii10052" unicode="&#x403;" horiz-adv-x="1065" 
d="M760 2066l-168 -327h-172l172 327h168zM983 1432h-737v-1434h-164v1599h901v-165z" />
    <glyph glyph-name="afii10053" unicode="&#x404;" horiz-adv-x="1597" 
d="M1505 193c-162 -158.667 -356.332 -238 -582.999 -238c-232.667 0 -430.834 82.5 -594.501 247.5s-245.5 363.833 -245.5 596.5c0 232 82 429.833 246 593.5s362 245.5 594 245.5c208 0 402.333 -79 583 -237l-116 -113c-128.667 124.667 -284.334 187 -467.001 187
c-130 0 -247 -30.667 -351 -92c-106 -62 -187.667 -150.333 -245 -265c-41.333 -82.667 -66 -163 -74 -241h670v-164h-670c22 -178 94.333 -321.5 217 -430.5s273.667 -163.5 453 -163.5c182.667 0 338.334 62 467.001 186z" />
    <glyph glyph-name="afii10054" unicode="&#x405;" horiz-adv-x="1085" 
d="M1004 420c0 -126.667 -45.165 -235.17 -135.498 -325.503s-198.833 -135.5 -325.5 -135.5c-128.667 0 -237.334 45 -326.001 135l115 115c55.333 -57.333 125.666 -86 210.999 -86c84 0 154.5 28.5 211.5 85.5s85.5 127.5 85.5 211.5
c0 84.667 -28.5 155.334 -85.5 212.001s-127.5 85 -211.5 85c-62 0 -121 12 -177 36c-85.333 36.667 -154 93.5 -206 170.5s-78 161.833 -78 254.5c0 126.667 45.167 235 135.5 325s198.833 135 325.5 135c133.333 0 243 -45 329 -135l-114 -114
c-55.333 57.333 -127 86 -215 86c-83.333 0 -153.666 -28.667 -210.999 -86s-86 -127.666 -86 -210.999c0 -74 25.667 -141 77 -201c54.667 -64 128 -96 220 -96c82 0 158.667 -20.667 230 -62s127.666 -97.666 168.999 -168.999s62 -148 62 -230z" />
    <glyph glyph-name="afii10055" unicode="&#x406;" horiz-adv-x="328" 
d="M246 0h-164v1597h164v-1597z" />
    <glyph glyph-name="afii10056" unicode="&#x407;" horiz-adv-x="328" 
d="M570 1860c0 -35.333 -11.666 -64.667 -34.999 -88s-52.666 -35 -87.999 -35c-34.667 0 -63.834 11.833 -87.501 35.5s-35.5 52.834 -35.5 87.501c0 35.333 11.667 64.666 35 87.999s52.666 35 87.999 35c36 0 65.5 -11.5 88.5 -34.5s34.5 -52.5 34.5 -88.5zM21.001 1860
c0 -35.333 -11.666 -64.667 -34.999 -88s-52.666 -35 -87.999 -35c-34.667 0 -63.834 11.833 -87.501 35.5s-35.5 52.834 -35.5 87.501c0 35.333 11.667 64.666 35 87.999s52.666 35 87.999 35c36 0 65.5 -11.5 88.5 -34.5s34.5 -52.5 34.5 -88.5zM246.002 -0.00195312h-164
v1597h164v-1597z" />
    <glyph glyph-name="afii10057" unicode="&#x408;" horiz-adv-x="430" 
d="M348 -102c0 -142 -49.834 -262.833 -149.501 -362.5s-220.5 -149.5 -362.5 -149.5v163c96.667 0 178.834 34 246.501 102s101.5 150.333 101.5 247v1701h164v-1701z" />
    <glyph glyph-name="afii10058" unicode="&#x409;" horiz-adv-x="1389" 
d="M1307 508c0 -140 -49.667 -260.333 -149 -361s-219 -151 -359 -151h-164v1012l-520 -1008h-172l856 1638l2 -618c140 0 259.333 -50.333 358 -151s148 -221 148 -361zM1143 508c0 134.667 -58 235 -174 301c-54.667 31.333 -111.334 47 -170.001 47v-696
c58.667 0 115.334 15.667 170.001 47c116 66.667 174 167 174 301z" />
    <glyph glyph-name="afii10059" unicode="&#x40a;" horiz-adv-x="1700" 
d="M1618 512c0 -195.333 -84.667 -342.668 -254 -442.001c-79.333 -46.667 -165.333 -70 -258 -70h-164v676h-696v-676h-164v1597h164v-757h696v757h164v-573c195.333 0 343.333 -85.333 444 -256c45.333 -77.333 68 -162.666 68 -255.999zM1454 511.998
c0 96.667 -33.833 178.832 -101.5 246.499s-149.834 101.5 -246.501 101.5v-696c96.667 0 178.834 33.833 246.501 101.5s101.5 149.834 101.5 246.501z" />
    <glyph glyph-name="afii10060" unicode="&#x40b;" horiz-adv-x="1556" 
d="M1475 -4l-164 -0.000976562v475c0 96 -34 178 -102 246s-150 102 -246 102c-97.333 0 -179.833 -33.667 -247.5 -101s-101.5 -149.666 -101.5 -246.999v-471h-163v1434h-369v163h901v-163h-369v-588c96.667 91.333 213 137 349 137c143.333 0 264.5 -49.5 363.5 -148.5
s148.5 -220.167 148.5 -363.5v-475z" />
    <glyph glyph-name="afii10061" unicode="&#x40c;" horiz-adv-x="819" 
d="M651 2066l-168 -327h-172l172 327h168zM756 0h-164l-346 666v-666h-164v1597h164v-665l346 665h164l-416 -798z" />
    <glyph glyph-name="afii10062" unicode="&#x40e;" horiz-adv-x="1597" 
d="M1081 1921c0 -83.333 -26.8311 -152 -80.498 -206s-122.167 -81 -205.5 -81c-117.333 0 -201.333 50.667 -252 152c-23.333 46.667 -35 91.667 -35 135h164c0 -33.333 12.167 -62.166 36.5 -86.499s53.166 -36.5 86.499 -36.5c35.333 0 64.666 11.667 87.999 35
s35 52.666 35 87.999h163zM1647 1597l-1049 -2011h-166l277 531l-766 1480h168l682 -1321l682 1321h172z" />
    <glyph glyph-name="afii10145" unicode="&#x40f;" horiz-adv-x="1065" 
d="M983 0h-369v-164h-163v164h-369v1599h164v-1433h573v1431h164v-1597z" />
    <glyph glyph-name="afii10017" unicode="&#x410;" horiz-adv-x="1597" 
d="M1647 0h-172l-250 487h-863l-251 -487h-168l848 1638zM1141 651l-348 670l-344 -670h692z" />
    <glyph glyph-name="afii10018" unicode="&#x411;" horiz-adv-x="840" 
d="M754 510c0 -142.667 -49 -263.667 -147 -363s-218.333 -149 -361 -149h-164v1599h618v-163h-458v-410c143.333 0 264.5 -49.833 363.5 -149.5s148.5 -221.167 148.5 -364.5zM590 510c0 98.667 -33.333 181.332 -100 247.999s-149.334 100 -248.001 100v-696
c96.667 0 178.834 33.833 246.501 101.5s101.5 149.834 101.5 246.501z" />
    <glyph glyph-name="afii10019" unicode="&#x412;" horiz-adv-x="840" 
d="M754 512c0 -173.333 -71.667 -305.333 -215 -396c-120 -76 -272.333 -115.333 -457 -118v1601c216 0 383.333 -49.667 502 -149c113.333 -95.333 170 -216.333 170 -363c0 -105.333 -29.333 -201.333 -88 -288c58.667 -87.333 88 -183 88 -287zM590 512
c0 121.333 -50.6689 216.999 -152.002 286.999c101.333 76 152 172 152 288c0 98.667 -33.167 181.5 -99.5 248.5s-149.166 100.5 -248.499 100.5v-1272c96.667 0 178.834 33.833 246.501 101.5s101.5 149.834 101.5 246.501z" />
    <glyph glyph-name="afii10020" unicode="&#x413;" horiz-adv-x="1065" 
d="M983 1432h-737v-1434h-164v1599h901v-165z" />
    <glyph glyph-name="afii10021" unicode="&#x414;" horiz-adv-x="1597" 
d="M1647 -164h-168v164h-1373v-164h-163v328h86l764 1474l768 -1474h86v-328zM1389 164l-596 1159l-598 -1159h1194z" />
    <glyph glyph-name="afii10022" unicode="&#x415;" 
d="M1106 0h-1024v1597h1024v-163h-860v-594h737v-164h-737v-512h860v-164z" />
    <glyph glyph-name="afii10024" unicode="&#x416;" horiz-adv-x="1335" 
d="M1276 0h-164l-346 666v-666h-164v666l-346 -666h-164l416 799l-416 798h164l346 -665v665h164v-665l346 665h164l-416 -798z" />
    <glyph glyph-name="afii10025" unicode="&#x417;" horiz-adv-x="1024" 
d="M942 471c0 -195.333 -85.335 -342.668 -256.002 -442.001c-80 -46.667 -165.333 -70 -256 -70c-134 0 -250 45 -348 135l117 117c62.667 -58.667 139.667 -88 231 -88c96.667 0 178.834 33.833 246.501 101.5s101.5 149.834 101.5 246.501
s-33.833 178.834 -101.5 246.501s-149.834 101.5 -246.501 101.5v164c69.333 0 127 23.667 173 71s69 105.666 69 174.999s-23.667 127.666 -71 174.999s-105.666 71 -174.999 71c-80 0 -153 -42.333 -219 -127l-125 102c84.667 125.333 199.334 188 344.001 188
c118.667 0 216.667 -38.5 294 -115.5s116 -174.833 116 -293.5c0 -134.667 -49.333 -240 -148 -316c169.333 -97.333 254 -244.666 254 -441.999z" />
    <glyph glyph-name="afii10026" unicode="&#x418;" horiz-adv-x="840" 
d="M766 0h-164v965l-520 -1006v1638h164v-995l520 1036v-1638z" />
    <glyph glyph-name="afii10027" unicode="&#x419;" horiz-adv-x="840" 
d="M709 1989c0 -80.667 -27.667 -148.667 -83 -204s-123.333 -83 -204 -83c-82.667 0 -151.167 27.167 -205.5 81.5s-81.5 122.833 -81.5 205.5h164c0 -36 11.5 -65.5 34.5 -88.5s52.5 -34.5 88.5 -34.5c34 0 63 12 87 36s36 53 36 87h164zM766 0h-164v965l-520 -1006v1638
h164v-995l520 1036v-1638z" />
    <glyph glyph-name="afii10028" unicode="&#x41a;" horiz-adv-x="819" 
d="M756 0h-164l-346 666v-666h-164v1597h164v-665l346 665h164l-416 -798z" />
    <glyph glyph-name="afii10029" unicode="&#x41b;" horiz-adv-x="1597" 
d="M1647 0h-168l-682 1321l-682 -1321h-172l856 1638z" />
    <glyph glyph-name="afii10030" unicode="&#x41c;" horiz-adv-x="1536" 
d="M1460 0h-164v979l-532 -1020l-518 1006v-965h-164v1638l684 -1362l694 1362v-1638z" />
    <glyph glyph-name="afii10031" unicode="&#x41d;" 
d="M1106 0h-164v676h-696v-676h-164v1597h164v-757h696v757h164v-1597z" />
    <glyph glyph-name="afii10032" unicode="&#x41e;" horiz-adv-x="1843" 
d="M1761 799c0 -230.667 -85.332 -431.332 -255.999 -601.999c-158.667 -158.667 -353 -238 -583 -238c-230.667 0 -428.334 82.167 -593.001 246.5s-247 362.166 -247 593.499c0 232 82 429.833 246 593.5s362 245.5 594 245.5c236 0 434.833 -80.833 596.5 -242.5
s242.5 -360.5 242.5 -596.5zM1597 799.002c0 126.667 -29.001 241.001 -87.001 343.001c-59.333 104.667 -143.666 186.667 -252.999 246c-106 58 -217.667 87 -335 87c-130 0 -247.167 -31.167 -351.5 -93.5s-185.833 -150.833 -244.5 -265.5
c-53.333 -104.667 -80 -210.334 -80 -317.001c0 -189.333 65.333 -349.333 196 -480s290.667 -196 480 -196c190 0 350 65.167 480 195.5s195 290.5 195 480.5z" />
    <glyph glyph-name="afii10033" unicode="&#x41f;" 
d="M1106 0h-164v1434l-696 -2v-1432h-164v1597h1024v-1597z" />
    <glyph glyph-name="afii10034" unicode="&#x420;" horiz-adv-x="840" 
d="M754 1087c0 -143.333 -49.5 -264.5 -148.5 -363.5s-220.167 -148.5 -363.5 -148.5l4 -577h-164v1601h164c142.667 0 263 -49.667 361 -149s147 -220.333 147 -363zM590 1087c0 98.667 -33.168 181.5 -99.501 248.5s-149.166 100.5 -248.499 100.5v-697
c98 0 180.5 33.5 247.5 100.5s100.5 149.5 100.5 247.5z" />
    <glyph glyph-name="afii10035" unicode="&#x421;" horiz-adv-x="1597" 
d="M1505 193c-162 -158.667 -356.332 -238 -582.999 -238c-232.667 0 -430.834 82.5 -594.501 247.5s-245.5 363.833 -245.5 596.5c0 232 82 429.833 246 593.5s362 245.5 594 245.5c208 0 402.333 -79 583 -237l-116 -113c-128.667 124.667 -284.334 187 -467.001 187
c-130 0 -247 -30.667 -351 -92c-106 -62 -187.667 -150.333 -245 -265c-53.333 -106.667 -80 -213 -80 -319c0 -195.333 64 -357.5 192 -486.5s289.333 -193.5 484 -193.5c182.667 0 338.334 62 467.001 186z" />
    <glyph glyph-name="afii10036" unicode="&#x422;" horiz-adv-x="1065" 
d="M983 1434h-369v-1436h-163v1436h-369v163h901v-163z" />
    <glyph glyph-name="afii10037" unicode="&#x423;" horiz-adv-x="1597" 
d="M1647 1597l-1049 -2011h-166l277 531l-766 1480h168l682 -1321l682 1321h172z" />
    <glyph glyph-name="afii10038" unicode="&#x424;" horiz-adv-x="1843" 
d="M1761 799c0 -215.333 -73.001 -403.5 -219.001 -564.5s-326.333 -251.5 -541 -271.5v-164h-163v164c-213.333 20.667 -392.666 111.5 -537.999 272.5s-218 348.833 -218 563.5c0 215.333 72.5 403.833 217.5 565.5s324.5 251.5 538.5 269.5v164h163v-164
c215.333 -19.333 395.833 -109.333 541.5 -270s218.5 -349 218.5 -565zM1597 799c0 176 -55.667 326.5 -167 451.5s-254.333 198.167 -429 219.5v-1343c168.667 16 310.667 90 426 222c113.333 130 170 280 170 450zM837.999 129v1341
c-167.333 -15.333 -307.833 -88.5 -421.5 -219.5s-170.5 -281.5 -170.5 -451.5c0 -174 55.5 -323.667 166.5 -449s252.833 -199 425.5 -221z" />
    <glyph glyph-name="afii10039" unicode="&#x425;" 
d="M1098 0h-164l-346 666l-342 -666h-164l410 799l-410 798h164l342 -665l346 665h164l-416 -798z" />
    <glyph glyph-name="afii10040" unicode="&#x426;" horiz-adv-x="1147" 
d="M1147 -164h-164v164h-901v1599h164v-1433h573v1431h164v-1429h164v-332z" />
    <glyph glyph-name="afii10041" unicode="&#x427;" 
d="M1106 0h-164.002v750c-95.333 -92 -211.333 -138 -348 -138c-139.333 0 -259.5 50.5 -360.5 151.5s-151.5 221.167 -151.5 360.5v471h164v-471c0 -96.667 33.833 -178.834 101.5 -246.501s149.834 -101.5 246.501 -101.5s178.834 33.833 246.501 101.5
s101.5 149.834 101.5 246.501v471h164v-1595z" />
    <glyph glyph-name="afii10042" unicode="&#x428;" horiz-adv-x="1790" 
d="M1718 0h-1636v1599h164v-1433h573v1431h164c1.33301 -53.333 2 -178 2 -374l-2 -1057h571v1431h164v-1597z" />
    <glyph glyph-name="afii10043" unicode="&#x429;" horiz-adv-x="1884" 
d="M1884 -164h-164v164h-1638v1599h164v-1433h573v1431h164v-1431h573v1431h164l-2 -1429h166v-332z" />
    <glyph glyph-name="afii10044" unicode="&#x42a;" horiz-adv-x="1204" 
d="M1122 508c0 -195.333 -84.667 -342.668 -254 -442.001c-79.333 -46.667 -164 -70 -254 -70h-163v1438h-369v163h532v-577c89.333 0 173.333 -23.333 252 -70c170.667 -101.333 256 -248.666 256 -441.999zM958 507.998c0 134 -57.999 234.334 -173.999 301.001
c-54.667 31.333 -111.334 47 -170.001 47v-696c59.333 0 116 15.667 170 47c116 67.333 174 167.666 174 300.999z" />
    <glyph glyph-name="afii10045" unicode="&#x42b;" horiz-adv-x="1085" 
d="M1004 0h-164v1597h164v-1597zM754 508c0 -142.667 -49 -263.667 -147 -363s-218.333 -149 -361 -149h-164v1601h164v-577c140.667 0 260.5 -50.167 359.5 -150.5s148.5 -220.833 148.5 -361.5zM590 508c0 97.333 -33 179.666 -99 246.999s-147.667 101 -245 101v-696
c96.667 0 178.167 33.833 244.5 101.5s99.5 149.834 99.5 246.501z" />
    <glyph glyph-name="afii10046" unicode="&#x42c;" horiz-adv-x="840" 
d="M754 508c0 -142.667 -48.999 -263.667 -146.999 -363s-218.333 -149 -361 -149h-164v1601h164l-4 -577c195.333 0 342.666 -84.667 441.999 -254c46.667 -79.333 70 -165.333 70 -258zM590.001 508c0 98.667 -33.333 181.332 -100 247.999s-149.334 100 -248.001 100
v-696c96.667 0 178.834 33.833 246.501 101.5s101.5 149.834 101.5 246.501z" />
    <glyph glyph-name="afii10047" unicode="&#x42d;" horiz-adv-x="1597" 
d="M1503 799c0 -154 -36.166 -294.168 -108.499 -420.501s-175 -228.5 -308 -306.5s-273.833 -117 -422.5 -117c-226.667 0 -421.334 79.333 -584.001 238l117 112c128 -124 283.667 -186 467 -186c177.333 0 327.666 54.833 450.999 164.5s196 252.834 218 429.501h-667
v164h667c-18 176 -89.667 319.667 -215 431s-276.666 167 -453.999 167c-183.333 0 -339 -62.333 -467 -187l-117 113c174.667 158 369.334 237 584.001 237c154 0 293.667 -36.167 419 -108.5s226.666 -175 303.999 -308s116 -273.833 116 -422.5z" />
    <glyph glyph-name="afii10048" unicode="&#x42e;" horiz-adv-x="2171" 
d="M2089 799c0 -235.333 -81.167 -434.167 -243.5 -596.5s-361.166 -243.5 -596.499 -243.5c-215.333 0 -403.333 72.667 -564 218s-251 325.333 -271 540h-168v-717h-164v1597h164v-716h168c10 128.667 53.667 252.667 131 372c79.333 122.667 180.166 217.5 302.499 284.5
s256.166 100.5 401.499 100.5c236.667 0 435.834 -80.667 597.501 -242s242.5 -360.333 242.5 -597zM1925 798.999c0 128 -30.667 245 -92 351c-64 109.333 -152 191.666 -264 246.999c-105.333 52 -212 78 -320 78c-129.333 0 -246.333 -31.333 -351 -94
s-186.334 -151 -245.001 -265c-53.333 -104 -80 -209.667 -80 -317c0 -130 31 -247 93 -351s150.667 -185.667 266 -245c104 -53.333 209.667 -80 317 -80c129.333 0 246.333 30.833 351 92.5s186.334 149.5 245.001 263.5c53.333 102.667 80 209.334 80 320.001z" />
    <glyph glyph-name="afii10049" unicode="&#x42f;" horiz-adv-x="840" 
d="M754 0l-164 -0.000976562v575l-291 -575h-164l307 598c-106 34 -192.5 96.333 -259.5 187s-100.5 191.334 -100.5 302.001c0 195.333 84.667 343 254 443c78 46 162.667 69 254 69h164v-1599zM594 738.999l-0.00195312 697.001c-97.333 0 -179.666 -34 -246.999 -102
s-101 -150.333 -101 -247s33.833 -178.834 101.5 -246.501s149.834 -101.5 246.501 -101.5z" />
    <glyph glyph-name="afii10065" unicode="&#x430;" 
d="M1106 0h-164v94c-98 -90 -214 -135 -348 -135c-142 0 -262.833 49.833 -362.5 149.5s-149.5 220.5 -149.5 362.5c0 88 23.333 172.667 70 254c98.667 172 246 258 442 258c132.667 0 248.667 -45.667 348 -137v96h164v-942zM942 471
c0 96.667 -33.833 178.834 -101.5 246.501s-149.834 101.5 -246.501 101.5s-178.834 -33.833 -246.501 -101.5s-101.5 -149.834 -101.5 -246.501s33.833 -178.834 101.5 -246.501s149.834 -101.5 246.501 -101.5s178.834 33.833 246.501 101.5s101.5 149.834 101.5 246.501z
" />
    <glyph glyph-name="afii10066" unicode="&#x431;" 
d="M1106 471c0 -196.667 -84.667 -344 -254 -442c-80.667 -46.667 -166.667 -70 -258 -70c-142 0 -262.833 49.833 -362.5 149.5s-149.5 220.5 -149.5 362.5v758c0 144 49.333 265.333 148 364s220 148 364 148h348v-164h-348c-136 0 -236.333 -57.333 -301 -172
c-31.333 -55.333 -47 -114 -47 -176v-383c95.333 91.333 211.333 137 348 137c195.333 0 343.333 -85.333 444 -256c45.333 -76.667 68 -162 68 -256zM942 471c0 96.667 -33.833 178.834 -101.5 246.501s-149.834 101.5 -246.501 101.5s-178.834 -33.833 -246.501 -101.5
s-101.5 -149.834 -101.5 -246.501s33.833 -178.834 101.5 -246.501s149.834 -101.5 246.501 -101.5s178.834 33.833 246.501 101.5s101.5 149.834 101.5 246.501z" />
    <glyph glyph-name="afii10067" unicode="&#x432;" horiz-adv-x="727" 
d="M645 279c0 -80 -26.333 -146.499 -79 -199.499s-119 -79.5 -199 -79.5h-285v954h285c81.333 0 148 -26 200 -78s78 -118.667 78 -200c0 -84.667 -25.333 -150.334 -76 -197.001c50.667 -51.333 76 -118 76 -200zM487 676.001c0 34.667 -11.3311 63.167 -33.998 85.5
s-51.334 33.5 -86.001 33.5h-121v-238h121c35.333 0 64.166 11 86.499 33s33.5 50.667 33.5 86zM487.002 279.001c0 34.667 -11.3311 63 -33.998 85s-51.334 33 -86.001 33h-121v-237h121c35.333 0 64.166 11 86.499 33s33.5 50.667 33.5 86z" />
    <glyph glyph-name="afii10068" unicode="&#x433;" horiz-adv-x="758" 
d="M676 682c0 -114.667 -50 -200 -150 -256c-21.333 -12 -59.666 -23 -114.999 -33s-93.333 -21.667 -114 -35c-34 -21.333 -51 -55.333 -51 -102c0 -37.333 12.833 -68.833 38.5 -94.5s57.167 -38.5 94.5 -38.5c40.667 0 72 13 94 39l115 -117
c-59.333 -57.333 -129 -86 -209 -86c-115.333 0 -200.666 50 -255.999 150c-27.333 49.333 -41 98.333 -41 147c0 111.333 49 196 147 254c44 26 94 39 150 39c37.333 0 68.833 12.833 94.5 38.5s38.5 57.167 38.5 94.5s-12.833 68.833 -38.5 94.5s-57.167 38.5 -94.5 38.5
c-38.667 0 -71.334 -14.333 -98.001 -43l-115 117c64 60 135 90 213 90c81.333 0 151.166 -29 209.499 -87s87.5 -128 87.5 -210z" />
    <glyph glyph-name="afii10069" unicode="&#x434;" 
d="M1106 -102c0 -196 -84.667 -343.667 -254 -443c-78.667 -46 -164.667 -69 -258 -69c-134 0 -250 45 -348 135l116 117c63.333 -59.333 140.666 -89 231.999 -89c96.667 0 178.834 33.833 246.501 101.5s101.5 150.167 101.5 247.5v196c-98 -90 -214 -135 -348 -135
c-142 0 -262.833 49.833 -362.5 149.5s-149.5 220.5 -149.5 362.5c0 88 23.333 172.667 70 254c98.667 172 246 258 442 258c132.667 0 248.667 -45.667 348 -137v96h164v-1044zM942 471c0 96.667 -33.833 178.834 -101.5 246.501s-149.834 101.5 -246.501 101.5
s-178.834 -33.833 -246.501 -101.5s-101.5 -149.834 -101.5 -246.501s33.833 -178.834 101.5 -246.501s149.834 -101.5 246.501 -101.5s178.834 33.833 246.501 101.5s101.5 149.834 101.5 246.501z" />
    <glyph glyph-name="afii10070" unicode="&#x435;" 
d="M1106 471c0 -28 -2 -55.333 -6 -82h-844c18 -77.333 58.833 -141 122.5 -191s135.5 -75 215.5 -75c91.333 0 168.333 29.333 231 88l117 -117c-98 -90 -214 -135 -348 -135c-142 0 -262.833 49.833 -362.5 149.5s-149.5 220.5 -149.5 362.5c0 88 23.333 172.667 70 254
c98.667 172 246 258 442 258c195.333 0 343.333 -85.333 444 -256c45.333 -76.667 68 -162 68 -256zM932 553c-18.667 80 -59.167 144.333 -121.5 193s-134.5 73 -216.5 73c-81.333 0 -153.5 -24.5 -216.5 -73.5s-103.5 -113.167 -121.5 -192.5h676z" />
    <glyph glyph-name="afii10072" unicode="&#x436;" horiz-adv-x="1393" 
d="M1419 0h-233l-408 408v-408h-164v408l-407 -408h-234l527 526l-416 416h233l297 -297v1096h164v-1096l297 297h234l-416 -416z" />
    <glyph glyph-name="afii10073" unicode="&#x437;" horiz-adv-x="961" 
d="M879 -139c0 -131.333 -46.502 -242.999 -139.502 -334.999s-205.167 -138 -336.5 -138c-126.667 0 -233.667 41.667 -321 125l108 106c63.333 -54.667 134.333 -82 213 -82c88.667 0 162.834 31.667 222.501 95s89.5 139.666 89.5 228.999c0 88 -30 162.833 -90 224.5
s-134 92.5 -222 92.5v170c66.667 2.66699 121.334 26 164.001 70s64 99.333 64 166c0 70 -21.667 126.667 -65 170s-100.333 65 -171 65c-64 0 -121.333 -23 -172 -69l-108 120c78.667 75.333 172 113 280 113c114.667 0 210 -38 286 -114s114 -171 114 -285
c0 -124.667 -50.667 -229.334 -152 -314.001c157.333 -91.333 236 -227.666 236 -408.999z" />
    <glyph glyph-name="afii10074" unicode="&#x438;" 
d="M1108 940l-1.99902 -939.999h-164v94c-98 -90 -214 -135 -348 -135c-140.667 0 -261.334 50.167 -362.001 150.5s-150.667 220.833 -150 361.5l2 471h164v-471c0 -98.667 33 -181.334 99 -248.001s148.333 -100 247 -100c96 0 178 33.667 246 101s102 149 102 245v471
h166z" />
    <glyph glyph-name="afii10075" unicode="&#x439;" 
d="M879 1587c0 -82.667 -26.8311 -151.168 -80.498 -205.501s-121.834 -81.5 -204.501 -81.5c-118.667 0 -203.334 50.667 -254.001 152c-23.333 46.667 -35 91.667 -35 135h164c0 -33.333 12.5 -62.166 37.5 -86.499s54.167 -36.5 87.5 -36.5c36 0 65.167 11.5 87.5 34.5
s33.5 52.5 33.5 88.5h164zM1108 939.999l-1.99902 -939.999h-164v94c-98 -90 -214 -135 -348 -135c-140.667 0 -261.334 50.167 -362.001 150.5s-150.667 220.833 -150 361.5l2 471h164v-471c0 -98.667 33 -181.334 99 -248.001s148.333 -100 247 -100
c96 0 178 33.667 246 101s102 149 102 245v471h166z" />
    <glyph glyph-name="afii10076" unicode="&#x43a;" horiz-adv-x="860" 
d="M887 0h-234l-407 408v-408h-164v1741h164v-1096l297 297h233l-416 -416z" />
    <glyph glyph-name="afii10077" unicode="&#x43b;" horiz-adv-x="1167" 
d="M1094 -2h-164l-342 666l-346 -666h-164l512 983z" />
    <glyph glyph-name="afii10078" unicode="&#x43c;" horiz-adv-x="2007" 
d="M1925 0h-164l-342 666l-346 -666h-164l-317 666l-346 -666h-166l514 983l399 -821l428 821z" />
    <glyph glyph-name="afii10079" unicode="&#x43d;" 
d="M1106 0h-164v348h-696v-348h-164v942h164v-430h696v430h164v-942z" />
    <glyph glyph-name="afii10080" unicode="&#x43e;" 
d="M1106 471c0 -196.667 -84.667 -344.001 -254 -442.001c-80.667 -46.667 -166.667 -70 -258 -70c-142 0 -262.833 49.833 -362.5 149.5s-149.5 220.5 -149.5 362.5c0 88 23.333 172.667 70 254c98.667 172 246 258 442 258s344 -85.333 444 -256
c45.333 -77.333 68 -162.666 68 -255.999zM942 470.999c0 96.667 -33.833 178.834 -101.5 246.501s-149.834 101.5 -246.501 101.5s-178.834 -33.833 -246.501 -101.5s-101.5 -149.834 -101.5 -246.501s33.833 -178.834 101.5 -246.501s149.834 -101.5 246.501 -101.5
s178.834 33.833 246.501 101.5s101.5 149.834 101.5 246.501z" />
    <glyph glyph-name="afii10081" unicode="&#x43f;" 
d="M1106 0h-163.998v471c0 96.667 -33.833 178.834 -101.5 246.501s-149.834 101.5 -246.501 101.5s-178.834 -33.833 -246.501 -101.5s-101.5 -149.834 -101.5 -246.501v-471h-164v942h164v-96c95.333 91.333 211.333 137 348 137c195.333 0 343.333 -85.333 444 -256
c45.333 -76.667 68 -162 68 -256v-471z" />
    <glyph glyph-name="afii10082" unicode="&#x440;" 
d="M1106 471c0 -196.667 -84.667 -344.001 -254 -442.001c-80.667 -46.667 -166.667 -70 -258 -70c-136.667 0 -252.667 45.667 -348 137v-669h-164v1515h164v-94c98 90 214 135 348 135c195.333 0 343.333 -85.333 444 -256c45.333 -77.333 68 -162.666 68 -255.999z
M942 470.999c0 96.667 -33.833 178.834 -101.5 246.501s-149.834 101.5 -246.501 101.5s-178.834 -33.833 -246.501 -101.5s-101.5 -149.834 -101.5 -246.501s33.833 -178.834 101.5 -246.501s149.834 -101.5 246.501 -101.5s178.834 33.833 246.501 101.5
s101.5 149.834 101.5 246.501z" />
    <glyph glyph-name="afii10083" unicode="&#x441;" horiz-adv-x="1028" 
d="M942 94c-98 -90 -214 -134.998 -348 -134.998c-142 0 -262.833 49.833 -362.5 149.5s-149.5 220.5 -149.5 362.5c0 88 23.333 172.667 70 254c98.667 172 246 258 442 258c132.667 0 248.667 -45.667 348 -137l-117 -115c-62.667 58.667 -139.667 88 -231 88
c-96.667 0 -178.834 -33.833 -246.501 -101.5s-101.5 -149.834 -101.5 -246.501s33.833 -178.834 101.5 -246.501s149.834 -101.5 246.501 -101.5c91.333 0 168.333 29.333 231 88z" />
    <glyph glyph-name="afii10084" unicode="&#x442;" horiz-adv-x="2068" 
d="M1989 0h-163.998v471c0 94.667 -32.5 176.334 -97.5 245.001s-144.5 103 -238.5 103h-12c-60.667 0 -122.334 -16.333 -185.001 -49c-124 -64.667 -186 -166.334 -186 -305.001v-465h-164v471c0 96.667 -33.833 178.834 -101.5 246.501s-149.834 101.5 -246.501 101.5
s-178.834 -33.833 -246.501 -101.5s-101.5 -149.834 -101.5 -246.501v-471h-164v942h164v-96c95.333 91.333 211.333 137 348 137c185.333 0 329.333 -79.333 432 -238c108.667 158.667 261.667 238 459 238c62.667 0 126.667 -13.667 192 -41
c96.667 -40.667 172.834 -103 228.501 -187s83.5 -178.667 83.5 -284v-471z" />
    <glyph glyph-name="afii10085" unicode="&#x443;" 
d="M1098 942l-791 -1515h-164l361 690l-422 825h164l342 -666l346 666h164z" />
    <glyph glyph-name="afii10086" unicode="&#x444;" horiz-adv-x="2048" 
d="M1966 471c0 -195.333 -85.333 -342.667 -256 -442c-80.667 -46.667 -166 -70 -256 -70c-136.667 0 -252.667 45.667 -348 137v-669h-164v667c-98 -90 -214 -135 -348 -135c-142 0 -262.833 49.833 -362.5 149.5s-149.5 220.5 -149.5 362.5c0 88 23.333 172.667 70 254
c98.667 172 246 258 442 258c132.667 0 248.667 -45.667 348 -137v751h164v-749c98 90 214 135 348 135c196 0 343.333 -84 442 -252c46.667 -79.333 70 -166 70 -260zM1802 470.999c0 96.667 -33.832 178.833 -101.499 246.5s-149.834 101.5 -246.501 101.5
s-178.834 -33.833 -246.501 -101.5s-101.5 -149.834 -101.5 -246.501c0 -134.667 58.667 -235 176 -301c56 -31.333 113.333 -47 172 -47c96.667 0 178.834 33.833 246.501 101.5s101.5 149.834 101.5 246.501zM942.001 470.998c0 96.667 -33.833 178.834 -101.5 246.501
s-149.834 101.5 -246.501 101.5s-178.834 -33.833 -246.501 -101.5s-101.5 -149.834 -101.5 -246.501s33.833 -178.834 101.5 -246.501s149.834 -101.5 246.501 -101.5s178.834 33.833 246.501 101.5s101.5 149.834 101.5 246.501z" />
    <glyph glyph-name="afii10087" unicode="&#x445;" horiz-adv-x="1229" 
d="M1253 0h-233l-408 408l-407 -408h-234l527 526l-416 416h233l297 -297l297 297h234l-416 -416z" />
    <glyph glyph-name="afii10088" unicode="&#x446;" horiz-adv-x="1270" 
d="M1270 -164h-163.999v164h-166v96c-95.333 -91.333 -210.666 -137 -345.999 -137c-140.667 0 -261.334 50.167 -362.001 150.5s-150.667 220.833 -150 361.5l2 471h164v-471c0 -99.333 32.833 -181.833 98.5 -247.5s148.167 -98.5 247.5 -98.5
c97.333 0 179.666 33 246.999 99s101 147.667 101 245v471h164v-776h164v-328z" />
    <glyph glyph-name="afii10089" unicode="&#x447;" horiz-adv-x="963" 
d="M881 0h-164v352c-74.667 -50.667 -154 -76 -238 -76c-114 0 -208.667 38.167 -284 114.5s-113 171.5 -113 285.5v266h164v-266c0 -98 39.667 -167 119 -207c38.667 -19.333 76.667 -29 114 -29c68 0 124.667 22.333 170 67s68 101 68 169v264h164v-940z" />
    <glyph glyph-name="afii10090" unicode="&#x448;" horiz-adv-x="2068" 
d="M1989 0h-164v96c-100 -91.333 -216 -137 -348 -137c-88 0 -170.333 21 -247 63c-78.667 42.667 -140.667 101 -186 175c-110 -158.667 -260 -238 -450 -238c-143.333 0 -264.5 49.5 -363.5 148.5s-148.5 220.167 -148.5 363.5v471h164v-471c0 -134.667 58 -235 174 -301
c54.667 -31.333 112.667 -47 174 -47c103.333 0 191 33.333 263 100s108 151.334 108 254.001v465h163v-471c0 -96.667 33.833 -178.834 101.5 -246.501s150.167 -101.5 247.5 -101.5c134.667 0 235 58.667 301 176c31.333 56 47 113.333 47 172v471h164v-942z" />
    <glyph glyph-name="afii10091" unicode="&#x449;" horiz-adv-x="2152" 
d="M2152 -164h-163v164h-164v96c-100 -91.333 -216 -137 -348 -137c-88 0 -170.333 21 -247 63c-78.667 42.667 -140.667 101 -186 175c-110 -158.667 -260 -238 -450 -238c-143.333 0 -264.5 49.5 -363.5 148.5s-148.5 220.167 -148.5 363.5v471h164v-471
c0 -134.667 58 -235 174 -301c54.667 -31.333 112.667 -47 174 -47c103.333 0 191 33.333 263 100s108 151.334 108 254.001v465h163v-471c0 -96.667 33.833 -178.834 101.5 -246.501s150.167 -101.5 247.5 -101.5c134.667 0 235 58.667 301 176
c31.333 56 47 113.333 47 172v471h164v-778h163v-328z" />
    <glyph glyph-name="afii10092" unicode="&#x44a;" horiz-adv-x="895" 
d="M813 397c0 -112 -37.833 -206.168 -113.5 -282.501s-169.5 -114.5 -281.5 -114.5h-170v778h-166v164h330v-143c114 0 209.333 -38.667 286 -116s115 -172.666 115 -285.999zM649 396.999c0 106.667 -48.334 179.667 -145.001 219c-31.333 12.667 -62 19 -92 19v-471
c94.667 0 163.334 39.667 206.001 119c20.667 38.667 31 76.667 31 114z" />
    <glyph glyph-name="afii10093" unicode="&#x44b;" horiz-adv-x="977" 
d="M893 0h-164v942h164v-942zM647 397c0 -109.333 -38.5 -202.832 -115.5 -280.499s-170.167 -116.5 -279.5 -116.5h-170v942h164v-143c112.667 0 207.667 -38.833 285 -116.5s116 -172.834 116 -285.501zM483 397.001c0 107.333 -48.332 180.333 -144.999 219
c-31.333 12.667 -62 19 -92 19v-471c69.333 0 126.166 21.5 170.499 64.5s66.5 99.167 66.5 168.5z" />
    <glyph glyph-name="afii10094" unicode="&#x44c;" horiz-adv-x="709" 
d="M647 397c0 -109.333 -38.5 -202.832 -115.5 -280.499s-170.167 -116.5 -279.5 -116.5h-170v942h164v-143c112.667 0 207.667 -38.833 285 -116.5s116 -172.834 116 -285.501zM483 397.001c0 107.333 -48.332 180.333 -144.999 219c-31.333 12.667 -62 19 -92 19v-471
c69.333 0 126.166 21.5 170.499 64.5s66.5 99.167 66.5 168.5z" />
    <glyph glyph-name="afii10095" unicode="&#x44d;" horiz-adv-x="1028" 
d="M942 471c0 -144 -49.332 -265.333 -147.999 -364s-220 -148 -364 -148c-132.667 0 -248.667 45.667 -348 137l117 115c62.667 -58.667 139.667 -88 231 -88c133.333 0 233.666 58 300.999 174c18.667 32 31 62.667 37 92h-338v164h338
c-14.667 77.333 -54.667 141 -120 191s-138 75 -218 75c-91.333 0 -168.333 -29.333 -231 -88l-117 117c98 90 214 135 348 135c142 0 262.833 -49.833 362.5 -149.5s149.5 -220.5 149.5 -362.5z" />
    <glyph glyph-name="afii10096" unicode="&#x44e;" horiz-adv-x="1516" 
d="M1434 471c0 -196.667 -84.665 -344 -253.998 -442c-80.667 -46.667 -166.667 -70 -258 -70c-126.667 0 -237.5 40.5 -332.5 121.5s-152.833 183.833 -173.5 308.5h-170v-389h-164v942h164v-389h170c21.333 125.333 79.166 228.333 173.499 309s205.166 121 332.499 121
c195.333 0 343.333 -85.333 444 -256c45.333 -76.667 68 -162 68 -256zM1270 471c0 98.667 -33.333 181.33 -100 247.997s-149.334 100 -248.001 100c-96.667 0 -179 -33.667 -247 -101s-102 -149.666 -102 -246.999s34 -179.666 102 -246.999s150.333 -101 247 -101
s178.834 33.833 246.501 101.5s101.5 149.834 101.5 246.501z" />
    <glyph glyph-name="afii10097" unicode="&#x44f;" horiz-adv-x="731" 
d="M649 940l-4 -940.001h-162l-2 141l-174 -141h-223l215 186c-3.33301 2 -10 6.33301 -20 13c-131.333 82.667 -197 198.667 -197 348c0 113.333 38.833 207.833 116.5 283.5s173.167 112.834 286.5 111.501zM485 777.999c-67.333 0 -124 -22 -170 -66
s-69 -99.667 -69 -167c0 -107.333 48.333 -180.333 145 -219c31.333 -12.667 62 -19 92 -19z" />
    <glyph glyph-name="afii10071" unicode="&#x451;" 
d="M999 1473c0 -36 -11.334 -65.499 -34.001 -88.499s-52 -34.5 -88 -34.5c-33.333 0 -62.166 12.167 -86.499 36.5s-36.5 53.166 -36.5 86.499c0 36 11.5 65.333 34.5 88s52.5 34 88.5 34c81.333 0 122 -40.667 122 -122zM450.999 1473
c0 -36 -11.501 -65.499 -34.501 -88.499s-52.5 -34.5 -88.5 -34.5c-33.333 0 -62.166 12.167 -86.499 36.5s-36.5 53.166 -36.5 86.499c0 36 11.5 65.333 34.5 88s52.5 34 88.5 34c82 0 123 -40.667 123 -122zM1106 471.002c0 -28 -2 -55.333 -6 -82h-844
c18 -77.333 58.833 -141 122.5 -191s135.5 -75 215.5 -75c91.333 0 168.333 29.333 231 88l117 -117c-98 -90 -214 -135 -348 -135c-142 0 -262.833 49.833 -362.5 149.5s-149.5 220.5 -149.5 362.5c0 88 23.333 172.667 70 254c98.667 172 246 258 442 258
c195.333 0 343.333 -85.333 444 -256c45.333 -76.667 68 -162 68 -256zM931.998 553.002c-18.667 80 -59.167 144.333 -121.5 193s-134.5 73 -216.5 73c-81.333 0 -153.5 -24.5 -216.5 -73.5s-103.5 -113.167 -121.5 -192.5h676z" />
    <glyph glyph-name="afii10099" unicode="&#x452;" horiz-adv-x="1350" 
d="M1268 471c0 -196.667 -84.665 -344.001 -253.998 -442.001c-80.667 -46.667 -166.667 -70 -258 -70v164c99.333 0 182.166 33 248.499 99s99.5 149 99.5 249c0 98.667 -33.333 181.334 -100 248.001s-149.334 100 -248.001 100c-96 0 -178 -34 -246 -102
s-102 -150 -102 -246v-471h-162v1157h-164v164h164v420h164v-420h163v-164h-163v-311c96.667 91.333 212 137 346 137c196.667 0 344.667 -85.333 444 -256c45.333 -78 68 -163.333 68 -256z" />
    <glyph glyph-name="afii10100" unicode="&#x453;" horiz-adv-x="758" 
d="M618 1599l-167 -327h-172l172 327h167zM676 682c0 -114.667 -50 -200 -150 -256c-21.333 -12 -59.666 -23 -114.999 -33s-93.333 -21.667 -114 -35c-34 -21.333 -51 -55.333 -51 -102c0 -37.333 12.833 -68.833 38.5 -94.5s57.167 -38.5 94.5 -38.5c40.667 0 72 13 94 39
l115 -117c-59.333 -57.333 -129 -86 -209 -86c-115.333 0 -200.666 50 -255.999 150c-27.333 49.333 -41 98.333 -41 147c0 111.333 49 196 147 254c44 26 94 39 150 39c37.333 0 68.833 12.833 94.5 38.5s38.5 57.167 38.5 94.5s-12.833 68.833 -38.5 94.5
s-57.167 38.5 -94.5 38.5c-38.667 0 -71.334 -14.333 -98.001 -43l-115 117c64 60 135 90 213 90c81.333 0 151.166 -29 209.499 -87s87.5 -128 87.5 -210z" />
    <glyph glyph-name="afii10101" unicode="&#x454;" horiz-adv-x="1028" 
d="M942 94c-98 -90 -214 -135 -348 -135c-142 0 -262.833 49.833 -362.5 149.5s-149.5 220.5 -149.5 362.5c0 88 23.333 172.667 70 254c98.667 172 246 258 442 258c132.667 0 248.667 -45.667 348 -137l-117 -115c-62.667 58.667 -139.667 88 -231 88
c-132 0 -232.333 -58 -301 -174c-18.667 -32 -31 -62.667 -37 -92h338v-164h-338c14.667 -77.333 54.667 -141 120 -191s138 -75 218 -75c91.333 0 168.333 29.333 231 88z" />
    <glyph glyph-name="afii10102" unicode="&#x455;" horiz-adv-x="758" 
d="M676 256c0 -81.333 -29.1689 -151.166 -87.502 -209.499s-128.166 -87.5 -209.499 -87.5c-80 0 -149.667 28.667 -209 86l115 117c22.667 -26 54 -39 94 -39c37.333 0 68.833 12.833 94.5 38.5s38.5 57.167 38.5 94.5c0 38 -12.5 69 -37.5 93s-56.833 36 -95.5 36
c-81.333 0 -151.166 29.167 -209.499 87.5s-87.5 128.166 -87.5 209.499c0 78 30 147 90 207s129 90 207 90c80 0 151 -30 213 -90l-115 -117c-25.333 28.667 -58 43 -98 43c-37.333 0 -68.833 -12.833 -94.5 -38.5s-38.5 -57.167 -38.5 -94.5s12.833 -68.833 38.5 -94.5
s57.167 -38.5 94.5 -38.5c53.333 0 103 -13 149 -39c98.667 -56 148 -140.667 148 -254z" />
    <glyph glyph-name="afii10103" unicode="&#x456;" horiz-adv-x="328" 
d="M246 1319c0 -22.667 -8 -42 -24 -58s-35.333 -24 -58 -24s-42 8 -58 24s-24 35.333 -24 58s8 42 24 58s35.333 24 58 24s42 -8 58 -24s24 -35.333 24 -58zM246 0h-164v942h164v-942z" />
    <glyph glyph-name="afii10104" unicode="&#x457;" horiz-adv-x="328" 
d="M588 1473c0 -35.333 -11.666 -64.667 -34.999 -88s-52.666 -35 -87.999 -35c-34.667 0 -63.834 11.833 -87.501 35.5s-35.5 52.834 -35.5 87.501c0 35.333 11.667 64.666 35 87.999s52.666 35 87.999 35c36 0 65.5 -11.5 88.5 -34.5s34.5 -52.5 34.5 -88.5zM39.001 1473
c0 -35.333 -11.666 -64.667 -34.999 -88s-52.666 -35 -87.999 -35c-34.667 0 -63.834 11.833 -87.501 35.5s-35.5 52.834 -35.5 87.501c0 35.333 11.667 64.666 35 87.999s52.666 35 87.999 35c36 0 65.5 -11.5 88.5 -34.5s34.5 -52.5 34.5 -88.5zM246.002 -0.00195312h-164
v942h164v-942z" />
    <glyph glyph-name="afii10105" unicode="&#x458;" horiz-adv-x="430" 
d="M348 1516c0 -22.667 -8 -42 -24 -58s-35.333 -24 -58 -24s-42 8 -58 24s-24 35.333 -24 58c0 23.333 7.83301 42.666 23.5 57.999s35.167 23 58.5 23s42.833 -7.66699 58.5 -23s23.5 -34.666 23.5 -57.999zM348 -102c0 -142 -49.834 -262.833 -149.501 -362.5
s-220.5 -149.5 -362.5 -149.5v163c96.667 0 178.834 34 246.501 102s101.5 150.333 101.5 247v1044h164v-1044z" />
    <glyph glyph-name="afii10106" unicode="&#x459;" horiz-adv-x="1423" 
d="M1341 385c0 -181.333 -82.333 -310.334 -247 -387.001h-164l-342 666l-346 -666h-164l512 983l112 -217c82 35.333 151.667 53 209 53c122.667 0 225 -41.167 307 -123.5s123 -185.166 123 -308.499zM1178 384.999c0 78 -25 142.167 -75 192.5s-114 75.5 -192 75.5
c-48.667 0 -93.667 -12.333 -135 -37l244 -473c105.333 52 158 132.667 158 242z" />
    <glyph glyph-name="afii10107" unicode="&#x45a;" horiz-adv-x="1425" 
d="M1343 397c0 -111.333 -38 -205.334 -114 -282.001s-169.667 -115 -281 -115h-170v348h-532v-348h-164v942h164v-430h532v430h164v-143c114.667 0 210.167 -38.167 286.5 -114.5s114.5 -172.166 114.5 -287.499zM1180 396.999c0 106.667 -48.667 179.667 -146 219
c-31.333 12.667 -62 19 -92 19v-471c68 0 124.667 21.833 170 65.5s68 99.5 68 167.5z" />
    <glyph glyph-name="afii10108" unicode="&#x45b;" horiz-adv-x="1352" 
d="M1270 0l-163.999 -0.00195312v471c0 98.667 -33.333 181.334 -100 248.001s-149.334 100 -248.001 100c-96 0 -178 -34 -246 -102s-102 -150 -102 -246v-471h-164v1157h-164v164h164v420h164v-420h163v-164h-163v-311c96.667 91.333 212.667 137 348 137
c196 0 344 -85.333 444 -256c45.333 -77.333 68 -162.666 68 -255.999v-471z" />
    <glyph glyph-name="afii10109" unicode="&#x45c;" horiz-adv-x="860" 
d="M682 1599l-170 -327h-170l170 327h170zM887 0h-234l-407 408v-408h-164v1741h164v-1096l297 297h233l-416 -416z" />
    <glyph glyph-name="afii10110" unicode="&#x45e;" 
d="M879 1587c0 -82.667 -26.8311 -151.168 -80.498 -205.501s-121.834 -81.5 -204.501 -81.5c-118.667 0 -203.334 50.667 -254.001 152c-23.333 46.667 -35 91.667 -35 135h164c0 -33.333 12.5 -62.166 37.5 -86.499s54.167 -36.5 87.5 -36.5c36 0 65.167 11.5 87.5 34.5
s33.5 52.5 33.5 88.5h164zM1098 941.999l-791 -1515h-164l361 690l-422 825h164l342 -666l346 666h164z" />
    <glyph glyph-name="afii10193" unicode="&#x45f;" horiz-adv-x="1065" 
d="M983 0h-369v-164h-163v164h-369v942h164v-776h573v774h164v-940z" />
    <glyph glyph-name="afii10050" unicode="&#x490;" horiz-adv-x="1065" 
d="M983 1432h-737v-1434h-164v1599h737v164h164v-329z" />
    <glyph glyph-name="afii10098" unicode="&#x491;" horiz-adv-x="758" 
d="M676 256c0 -114 -50 -199.331 -150 -255.998c-48 -27.333 -97 -41 -147 -41c-80 0 -149.667 28.667 -209 86l115 117c22 -26 53.333 -39 94 -39c37.333 0 68.833 12.833 94.5 38.5s38.5 57.167 38.5 94.5c0 39.333 -12.167 70.666 -36.5 93.999s-56.5 35 -96.5 35
c-115.333 0 -200.666 50 -255.999 150c-27.333 49.333 -41 98.333 -41 147c0 79.333 29.667 148.666 89 207.999s128.666 89 207.999 89h133v164h164v-328h-297c-37.333 0 -68.833 -12.833 -94.5 -38.5s-38.5 -57.167 -38.5 -94.5s12.833 -68.833 38.5 -94.5
s57.167 -38.5 94.5 -38.5c112 0 198 -48.667 258 -146c26 -42.667 39 -91.667 39 -147z" />
    <glyph glyph-name="endash" unicode="&#x2013;" 
d="M1108 473h-1026v164h1026v-164z" />
    <glyph glyph-name="emdash" unicode="&#x2014;" horiz-adv-x="2212" 
d="M2132 473h-2050v164h2050v-164z" />
    <glyph glyph-name="quoteleft" unicode="&#x2018;" horiz-adv-x="410" 
d="M387 1346l-164.001 0.00195312l-131 256c-0.666992 0.666992 -1 1.66699 -1 3c-7.33301 14.667 -11 32.667 -11 54c0 36 11.5 65.5 34.5 88.5s52.5 34.5 88.5 34.5c34.667 0 63.834 -11.833 87.501 -35.5s35.5 -52.834 35.5 -87.501
c0 -42.667 -16.667 -75.334 -50 -98.001z" />
    <glyph glyph-name="quoteright" unicode="&#x2019;" horiz-adv-x="389" 
d="M328 1659c0 -21.333 -4.33203 -40.332 -12.999 -56.999l-131 -256h-164l111 215c-32.667 23.333 -49 56 -49 98c0 35.333 11.667 64.666 35 87.999s52.666 35 87.999 35c36 0 65.5 -11.5 88.5 -34.5s34.5 -52.5 34.5 -88.5z" />
    <glyph glyph-name="quotesinglbase" unicode="&#x201a;" horiz-adv-x="410" 
d="M225 125c0 -22.667 -4.00098 -41.667 -12.001 -57l-131 -256h-164l111 215c-32.667 23.333 -49 56 -49 98c0 34.667 11.667 63.834 35 87.501s52.333 35.5 87 35.5c36.667 0 66.334 -11.333 89.001 -34s34 -52.334 34 -89.001z" />
    <glyph glyph-name="quotedblleft" unicode="&#x201c;" horiz-adv-x="778" 
d="M774 1346l-164.001 0.00195312l-131 256c-0.666992 0.666992 -1 1.66699 -1 3c-7.33301 14.667 -11 32.667 -11 54c0 36 11.5 65.5 34.5 88.5s52.5 34.5 88.5 34.5c34.667 0 63.834 -11.833 87.501 -35.5s35.5 -52.834 35.5 -87.501
c0 -42.667 -16.667 -75.334 -50 -98.001zM386.999 1346l-164.001 0.00195312l-131 256c-0.666992 0.666992 -1 1.66699 -1 3c-7.33301 14.667 -11 32.667 -11 54c0 36 11.5 65.5 34.5 88.5s52.5 34.5 88.5 34.5c34.667 0 63.834 -11.833 87.501 -35.5
s35.5 -52.834 35.5 -87.501c0 -42.667 -16.667 -75.334 -50 -98.001z" />
    <glyph glyph-name="quotedblright" unicode="&#x201d;" horiz-adv-x="778" 
d="M694 1659c0 -22.667 -4.00098 -41.667 -12.001 -57l-131 -256h-164l111 215c-32.667 23.333 -49 56 -49 98c0 34.667 11.667 63.834 35 87.501s52.333 35.5 87 35.5c36.667 0 66.334 -11.333 89.001 -34s34 -52.334 34 -89.001zM306.999 1659
c0 -22.667 -4.00098 -41.666 -12.001 -56.999l-131 -256h-164l111 215c-33.333 23.333 -50 56 -50 98c0 34 12 63 36 87s53 36 87 36c36.667 0 66.334 -11.333 89.001 -34s34 -52.334 34 -89.001z" />
    <glyph glyph-name="quotedblbase" unicode="&#x201e;" horiz-adv-x="778" 
d="M612 123c0 -22.667 -4.00098 -41.667 -12.001 -57l-131 -256h-164l111 215c-32.667 23.333 -49 56 -49 98c0 34.667 11.667 63.834 35 87.501s52.333 35.5 87 35.5c36.667 0 66.334 -11.333 89.001 -34s34 -52.334 34 -89.001zM224.999 123
c0 -22.667 -4.00098 -41.667 -12.001 -57l-131 -256h-164l111 215c-32.667 23.333 -49 56 -49 98c0 34.667 11.667 63.834 35 87.501s52.333 35.5 87 35.5c36.667 0 66.334 -11.333 89.001 -34s34 -52.334 34 -89.001z" />
    <glyph glyph-name="bullet" unicode="&#x2022;" horiz-adv-x="737" 
d="M655 954c0 -82 -27.167 -150.167 -81.5 -204.5s-122.5 -81.5 -204.5 -81.5c-80.667 0 -148.667 27.333 -204 82s-83 122.667 -83 204s27.333 149.5 82 204.5s123 82.5 205 82.5c82.667 0 151 -27 205 -81s81 -122.667 81 -206z" />
    <glyph glyph-name="ellipsis" unicode="&#x2026;" horiz-adv-x="1229" 
d="M1147 123c0 -36 -11.499 -65.499 -34.499 -88.499s-52.5 -34.5 -88.5 -34.5c-34.667 0 -63.834 11.833 -87.501 35.5s-35.5 52.834 -35.5 87.501c0 35.333 11.667 64.666 35 87.999s52.666 35 87.999 35c36.667 0 66.334 -11.333 89.001 -34s34 -52.334 34 -89.001z
M737.001 123.001c0 -36 -11.501 -65.501 -34.501 -88.501s-52.5 -34.5 -88.5 -34.5c-34.667 -0 -63.667 11.833 -87 35.5s-35 52.834 -35 87.501s11.667 63.834 35 87.501s52.333 35.5 87 35.5c36.667 0 66.334 -11.333 89.001 -34s34 -52.334 34 -89.001zM328 123
c0 -35.333 -11.666 -64.667 -34.999 -88s-52.666 -35 -87.999 -35c-34.667 -0 -63.834 11.833 -87.501 35.5s-35.5 52.834 -35.5 87.501c0 35.333 11.667 64.666 35 87.999s52.666 35 87.999 35c36 0 65.5 -11.5 88.5 -34.5s34.5 -52.5 34.5 -88.5z" />
    <glyph glyph-name="perthousand" unicode="&#x2030;" horiz-adv-x="2007" 
d="M1933 287c0 -82 -27 -150.333 -81 -205s-122.333 -82 -205 -82c-80.667 0 -148.667 27.5 -204 82.5s-83 123.167 -83 204.5s27.5 149.333 82.5 204s123.167 82 204.5 82c82 0 150.167 -27.167 204.5 -81.5s81.5 -122.5 81.5 -204.5zM655 1311
c0 -82 -27 -150.333 -81 -205s-122.333 -82 -205 -82c-80.667 0 -148.667 27.5 -204 82.5s-83 123.167 -83 204.5c0 80.667 27.667 148.5 83 203.5s123.333 82.5 204 82.5c82 0 150.167 -27.167 204.5 -81.5s81.5 -122.5 81.5 -204.5zM1196 1597l-924 -1597h-190l924 1597
h190zM1196 287c0 -83.333 -27 -152 -81 -206s-122.667 -81 -206 -81c-80.667 0 -148.5 27.667 -203.5 83s-82.5 123.333 -82.5 204s27.333 148.5 82 203.5s122.667 82.5 204 82.5c82 0 150.333 -27 205 -81s82 -122.333 82 -205zM1769 287
c0 35.333 -11.5 64.6699 -34.5 88.0029s-52.167 35 -87.5 35c-34.667 0 -63.834 -11.833 -87.501 -35.5s-35.5 -52.834 -35.5 -87.501s11.833 -63.834 35.5 -87.501s52.834 -35.5 87.501 -35.5c35.333 0 64.5 11.667 87.5 35s34.5 52.666 34.5 87.999zM492 1311
c0 35.333 -11.667 64.6699 -35 88.0029s-52.666 35 -87.999 35c-34.667 0 -63.834 -11.833 -87.501 -35.5s-35.5 -52.834 -35.5 -87.501s11.833 -63.834 35.5 -87.501s52.834 -35.5 87.501 -35.5c35.333 0 64.666 11.667 87.999 35s35 52.666 35 87.999zM1032 287.008
c0 36 -11.502 65.5 -34.502 88.5s-52.5 34.5 -88.5 34.5c-33.333 0 -62.166 -12.167 -86.499 -36.5s-36.5 -53.166 -36.5 -86.499c0 -34.667 11.833 -63.834 35.5 -87.501s52.834 -35.5 87.501 -35.5c36 0 65.5 11.5 88.5 34.5s34.5 52.5 34.5 88.5z" />
    <glyph glyph-name="guilsinglleft" unicode="&#x2039;" horiz-adv-x="983" 
d="M901 0l-819 428l819 424v-168l-502 -258l502 -258v-168z" />
    <glyph glyph-name="guilsinglright" unicode="&#x203a;" horiz-adv-x="983" 
d="M901 428l-819 -428v168l502 258l-502 258v168z" />
    <glyph glyph-name="fraction" unicode="&#x2044;" horiz-adv-x="184" 
d="M479 1597l-602 -1597h-123l600 1597h125z" />
    <glyph glyph-name="afii61352" unicode="&#x2116;" horiz-adv-x="1864" 
d="M1767 1206c0 -120 -41.667 -221.667 -125 -305s-185 -125 -305 -125s-221.333 41.667 -304 125s-124 185 -124 305c0 120.667 41.167 222.167 123.5 304.5s183.833 123.5 304.5 123.5c122.667 0 225 -40.667 307 -122s123 -183.333 123 -306zM1784 473h-862v164h862v-164
zM766 -41l-520 1006v-965h-164v1638l520 -1036v995h164v-1638zM1630 1206c0 84 -27.833 153.501 -83.5 208.501s-125.5 82.5 -209.5 82.5c-80.667 0 -149.167 -28.333 -205.5 -85s-84.5 -125.334 -84.5 -206.001c0 -79.333 28.667 -148 86 -206s125.333 -87 204 -87
c81.333 0 150.5 28.5 207.5 85.5s85.5 126.167 85.5 207.5z" />
    <glyph glyph-name="trademark" unicode="&#x2122;" horiz-adv-x="1270" 
d="M1180 799h-84v489l-265 -510l-256 504v-483h-83v819l342 -680l346 680v-819zM451 1516h-183v-717h-82l-2 717h-184v83h451v-83z" />
    <glyph glyph-name="periodcentered" unicode="&#x2219;" horiz-adv-x="410" 
d="M328 535c0 -35.333 -11.667 -64.668 -35 -88.001s-52.666 -35 -87.999 -35c-34.667 0 -63.834 11.833 -87.501 35.5s-35.5 52.834 -35.5 87.501c0 34 11.833 62.833 35.5 86.5s52.834 35.5 87.501 35.5c35.333 0 64.666 -11.5 87.999 -34.5s35 -52.167 35 -87.5z" />
    <glyph glyph-name="fi" unicode="&#xf001;" horiz-adv-x="737" 
d="M655 1319c0 -22.667 -8 -42 -24 -58s-35.333 -24 -58 -24c-23.333 0 -42.666 7.83301 -57.999 23.5s-23 35.167 -23 58.5s7.66699 42.833 23 58.5s34.666 23.5 57.999 23.5c22.667 0 42 -8 58 -24s24 -35.333 24 -58zM676 1618
c-96.667 0 -178.833 -33.832 -246.5 -101.499s-101.5 -149.834 -101.5 -246.501v-328h327v-942h-163v778h-164v-778h-164v778h-164v164h164v328c0 142 49.833 262.833 149.5 362.5s220.5 149.5 362.5 149.5v-164z" />
    <glyph glyph-name="fl" unicode="&#xf002;" horiz-adv-x="758" 
d="M676 1516l-166.001 -0.000976562v-574h-182v328c0 96.667 33.833 178.834 101.5 246.501s149.834 101.5 246.501 101.5v164c-142 0 -262.833 -49.833 -362.5 -149.5s-149.5 -220.5 -149.5 -362.5v-328h-164v-164h164v-778h164v778h182v-778h164z" />
    <glyph glyph-name=".null" horiz-adv-x="0" 
 />
    <glyph glyph-name="nonmarkingreturn" horiz-adv-x="717" 
 />
  </font>
</defs>
</svg>
